<?xml version="1.0" encoding="UTF-8" standalone="no"?>
<!DOCTYPE svg PUBLIC "-//W3C//DTD SVG 1.1//EN" "http://www.w3.org/Graphics/SVG/1.1/DTD/svg11.dtd">
<svg width="100%" height="100%" viewBox="0 0 420 74" version="1.1" xmlns="http://www.w3.org/2000/svg" xmlns:xlink="http://www.w3.org/1999/xlink" xml:space="preserve" xmlns:serif="http://www.serif.com/" style="fill-rule:evenodd;clip-rule:evenodd;stroke-linejoin:round;stroke-miterlimit:2;">
    <g transform="matrix(2.07808,0,0,2.07725,-743.13,-581.637)">
        <g transform="matrix(1,0,0,1,368.479,315.206)">
            <path d="M0,-35.086C9.063,-34.633 13.508,-28.773 13.336,-17.508C13.617,-5.883 9.195,-0.109 0.07,-0.188L0.07,-5.438C5.305,-5.797 7.695,-9.672 7.242,-17.063C7.367,-25.203 4.953,-29.367 0,-29.555L0,-35.086ZM-10.875,-35.039L-5.508,-35.039L-5.508,0L-10.875,0L-10.875,-35.039Z" style="fill-rule:nonzero;"/>
        </g>
        <g transform="matrix(1,0,0,1,429.084,315.183)">
            <path d="M0,-35.016L12.117,-35.016L12.117,-29.532L0,-29.532L0,-35.016ZM-0.047,-5.696L12.07,-5.696L12.117,-1.711L12.117,0L6.867,0L6.234,-0.024L5.25,0L-0.047,0L-0.047,-5.696ZM-11.836,-35.016L-5.953,-35.016L-5.953,-20.414L-0.07,-20.414L-0.07,-14.789L-5.953,-14.789L-5.953,0L-11.836,0L-11.836,-35.016Z" style="fill-rule:nonzero;"/>
        </g>
        <g transform="matrix(1,0,0,1,501.266,315.207)">
            <path d="M0,-34.993L-2.297,-16.805L-3.609,-16.805L-5.203,-19.102L-6.727,-25.243L-5.555,-35.04L0,-34.993ZM-9.938,-0.024L-4.688,-0.024L-3.398,-8.251L-7.266,-10.548L-12.539,-35.016L-15.305,-35.016L-16.242,-28.055L-9.938,-0.024ZM-18.703,-15.634L-15.984,-9.657L-18.398,0.07L-22.781,0.07L-26.367,-35.04L-21.164,-35.063L-18.703,-15.634Z" style="fill-rule:nonzero;"/>
        </g>
        <g transform="matrix(1,0,0,1,553.059,315.183)">
            <path d="M0,-35.18L6.633,-35.157L0.328,-23.344L-3.047,-29.344L0,-35.18ZM-17.742,-35.18L-11.18,-35.18L-2.273,-18.305L-2.32,0L-8.742,0L-8.859,-17.649L-17.742,-35.18Z" style="fill-rule:nonzero;"/>
        </g>
    </g>
</svg>
