<?xml version="1.0" encoding="UTF-8" standalone="no"?>
<!DOCTYPE svg PUBLIC "-//W3C//DTD SVG 1.1//EN" "http://www.w3.org/Graphics/SVG/1.1/DTD/svg11.dtd">
<svg width="100%" height="100%" viewBox="0 0 3508 2481" version="1.1" xmlns="http://www.w3.org/2000/svg" xmlns:xlink="http://www.w3.org/1999/xlink" xml:space="preserve" xmlns:serif="http://www.serif.com/" style="fill-rule:evenodd;clip-rule:evenodd;stroke-linejoin:round;stroke-miterlimit:2;">
    <g id="レイヤー-1" serif:id="レイヤー 1" transform="matrix(4.16667,0,0,4.16667,-0.000654385,-0.00932654)">
        <g transform="matrix(0.24,0,0,0.24,-0.0764575,-2.55602)">
            <rect x="733.222" y="998.416" width="2042.07" height="504.802" style="fill:white;"/>
        </g>
        <g transform="matrix(1,0,0,1,28.0156,1.09139e-13)">
            <g transform="matrix(0.133815,0,0,0.133815,148.485,89.2833)">
                <path d="M925.095,1310.55C946.262,1400.93 975.22,1436.6 1006.8,1475.47C1027.22,1500.64 1048.72,1527.1 1070.1,1569.1C1075.55,1579.85 1080.05,1590.97 1083.18,1602.68C1086.35,1614.51 1088.14,1626.8 1088.14,1639.64C1088.14,1663.3 1083.8,1685.43 1075.18,1705.97C1066.55,1726.43 1053.68,1745.14 1036.55,1762.05C1019.39,1778.93 1000.51,1791.68 979.887,1800.22C959.22,1808.76 936.97,1813.05 913.178,1813.05C889.387,1813.05 867.178,1808.76 846.553,1800.22C826.012,1791.72 807.178,1778.97 790.012,1762.05C772.887,1745.14 759.97,1726.43 751.345,1705.97C742.678,1685.43 738.345,1663.3 738.345,1639.64C738.345,1627.51 739.928,1615.89 742.762,1604.68C745.553,1593.68 749.595,1583.1 754.595,1572.76C775.512,1529.51 797.47,1502.6 818.595,1476.64C850.303,1437.72 880.22,1401.05 901.053,1310.6C902.553,1303.97 909.178,1299.85 915.803,1301.35C920.595,1302.47 924.053,1306.14 925.095,1310.55Z" style="fill:none;fill-rule:nonzero;stroke:black;stroke-width:52.31px;"/>
            </g>
            <g transform="matrix(1,0,0,1,-21.12,4.32)">
                <g transform="matrix(1,0,0,1,368.479,315.206)">
                    <path d="M0,-35.086C9.063,-34.633 13.508,-28.773 13.336,-17.508C13.617,-5.883 9.195,-0.109 0.07,-0.188L0.07,-5.438C5.305,-5.797 7.695,-9.672 7.242,-17.063C7.367,-25.203 4.953,-29.367 0,-29.555L0,-35.086ZM-10.875,-35.039L-5.508,-35.039L-5.508,0L-10.875,0L-10.875,-35.039Z" style="fill-rule:nonzero;"/>
                </g>
                <g transform="matrix(1,0,0,1,429.084,315.183)">
                    <path d="M0,-35.016L12.117,-35.016L12.117,-29.532L0,-29.532L0,-35.016ZM-0.047,-5.696L12.07,-5.696L12.117,-1.711L12.117,0L6.867,0L6.234,-0.024L5.25,0L-0.047,0L-0.047,-5.696ZM-11.836,-35.016L-5.953,-35.016L-5.953,-20.414L-0.07,-20.414L-0.07,-14.789L-5.953,-14.789L-5.953,0L-11.836,0L-11.836,-35.016Z" style="fill-rule:nonzero;"/>
                </g>
                <g transform="matrix(1,0,0,1,501.266,315.207)">
                    <path d="M0,-34.993L-2.297,-16.805L-3.609,-16.805L-5.203,-19.102L-6.727,-25.243L-5.555,-35.04L0,-34.993ZM-9.938,-0.024L-4.688,-0.024L-3.398,-8.251L-7.266,-10.548L-12.539,-35.016L-15.305,-35.016L-16.242,-28.055L-9.938,-0.024ZM-18.703,-15.634L-15.984,-9.657L-18.398,0.07L-22.781,0.07L-26.367,-35.04L-21.164,-35.063L-18.703,-15.634Z" style="fill-rule:nonzero;"/>
                </g>
                <g transform="matrix(1,0,0,1,553.059,315.183)">
                    <path d="M0,-35.18L6.633,-35.157L0.328,-23.344L-3.047,-29.344L0,-35.18ZM-17.742,-35.18L-11.18,-35.18L-2.273,-18.305L-2.32,0L-8.742,0L-8.859,-17.649L-17.742,-35.18Z" style="fill-rule:nonzero;"/>
                </g>
            </g>
        </g>
    </g>
</svg>
