<?xml version="1.0" encoding="UTF-8" standalone="no"?>
<!DOCTYPE svg PUBLIC "-//W3C//DTD SVG 1.1//EN" "http://www.w3.org/Graphics/SVG/1.1/DTD/svg11.dtd">
<svg width="100%" height="100%" viewBox="0 0 50 70" version="1.1" xmlns="http://www.w3.org/2000/svg" xmlns:xlink="http://www.w3.org/1999/xlink" xml:space="preserve" xmlns:serif="http://www.serif.com/" style="fill-rule:evenodd;clip-rule:evenodd;stroke-linejoin:round;stroke-miterlimit:2;">
    <g transform="matrix(0.124353,0,0,0.124096,-88.5641,-158.208)">
        <path d="M950.551,1304.59C970.369,1389.2 997.522,1422.58 1027.09,1458.97L1027.1,1458.99C1048.52,1485.38 1070.98,1513.18 1093.39,1557.23L1093.4,1557.25C1099.69,1569.63 1104.84,1582.44 1108.44,1595.92C1112.18,1609.92 1114.28,1624.46 1114.28,1639.64C1114.28,1666.92 1109.23,1692.42 1099.28,1716.1L1099.27,1716.13C1089.35,1739.66 1074.61,1761.21 1054.92,1780.66C1054.91,1780.68 1054.89,1780.69 1054.88,1780.71C1035.2,1800.05 1013.53,1814.6 989.887,1824.39L989.87,1824.39C966.107,1834.22 940.535,1839.21 913.178,1839.21C885.813,1839.21 860.28,1834.21 836.557,1824.39C812.999,1814.64 791.352,1800.09 771.664,1780.69L771.642,1780.66C751.953,1761.22 737.173,1739.66 727.256,1716.14C717.26,1692.44 712.2,1666.94 712.2,1639.64C712.2,1625.29 714.062,1611.53 717.415,1598.27L717.421,1598.24C720.645,1585.54 725.286,1573.3 731.061,1561.37C753.077,1515.85 776.085,1487.45 798.32,1460.12L798.329,1460.11C828.008,1423.69 856.073,1389.4 875.574,1304.73C880.296,1284.09 900.908,1271.16 921.575,1275.84C921.642,1275.85 921.71,1275.87 921.777,1275.88C936.652,1279.37 947.308,1290.84 950.541,1304.55L950.551,1304.59ZM913.136,1364.86C892.414,1427.4 866.291,1459.5 838.866,1493.16C818.853,1517.75 797.946,1543.18 778.13,1584.15L778.128,1584.16C773.905,1592.88 770.465,1601.81 768.106,1611.1C765.794,1620.25 764.49,1629.74 764.49,1639.64C764.49,1659.67 768.096,1678.41 775.433,1695.8L775.435,1695.81C782.767,1713.2 793.816,1729.05 808.371,1743.43C823.012,1757.86 839.027,1768.8 856.547,1776.05L856.554,1776.05C874.079,1783.31 892.962,1786.9 913.178,1786.9C933.402,1786.9 952.327,1783.31 969.895,1776.05C987.494,1768.76 1003.56,1757.82 1018.21,1743.42C1032.75,1729.05 1043.75,1713.2 1051.08,1695.82C1058.38,1678.43 1061.99,1659.68 1061.99,1639.64C1061.99,1629.15 1060.51,1619.11 1057.92,1609.44L1057.92,1609.43C1055.27,1599.5 1051.42,1590.07 1046.79,1580.95C1026.46,1541.01 1005.93,1515.9 986.508,1491.96C959.212,1458.36 933.787,1427 913.136,1364.86Z"/>
    </g>
</svg>
