<?xml version="1.0" encoding="UTF-8" standalone="no"?>
<!DOCTYPE svg PUBLIC "-//W3C//DTD SVG 1.1//EN" "http://www.w3.org/Graphics/SVG/1.1/DTD/svg11.dtd">
<svg width="100%" height="100%" viewBox="0 0 1080 900" version="1.1" xmlns="http://www.w3.org/2000/svg" xmlns:xlink="http://www.w3.org/1999/xlink" xml:space="preserve" xmlns:serif="http://www.serif.com/" style="fill-rule:evenodd;clip-rule:evenodd;stroke-linecap:round;stroke-linejoin:round;stroke-miterlimit:1.5;">
    <g transform="matrix(0.997416,0,0,1.03553,1.86117,0.16905)">
        <rect x="-1.866" y="-0.129" width="1082.8" height="869.085" style="fill:white;"/>
    </g>
    <g transform="matrix(1,0,0,1,-9.22245,-48.3116)">
        <g>
            <g transform="matrix(1,0,0,1,691.874,-235.741)">
                <circle cx="264.523" cy="619.785" r="101.813" style="fill:none;stroke:rgb(35,31,32);stroke-width:5px;stroke-dasharray:5,15,0,0,0,0;"/>
            </g>
            <g transform="matrix(1,0,0,1,817.469,291.23)">
                <text x="82.115px" y="68.931px" style="font-family:'AvenirNext-Medium', 'Avenir Next', sans-serif;font-weight:500;font-size:25px;fill:rgb(35,31,32);">App,<tspan x="137.34px 143.59px 157.34px 163.815px " y="68.931px 68.931px 68.931px 68.931px "> Fil</tspan>es</text>
                <text x="61.265px" y="102.264px" style="font-family:'AvenirNext-Medium', 'Avenir Next', sans-serif;font-weight:500;font-size:25px;fill:rgb(35,31,32);">or Containers</text>
                <g transform="matrix(29.1667,0,0,29.1667,184.209,135.598)">
                </g>
                <text x="93.647px" y="135.598px" style="font-family:'AvenirNext-Bold', 'Avenir Next', sans-serif;font-weight:700;font-size:29.167px;fill:rgb(35,31,32);">v1.2.2</text>
            </g>
        </g>
        <g transform="matrix(1,0,0,1,-3.20481,0)">
            <g transform="matrix(1,0,0,1,695.079,30.8613)">
                <circle cx="264.523" cy="619.785" r="101.813" style="fill:none;stroke:rgb(35,31,32);stroke-width:5px;"/>
            </g>
            <g transform="matrix(1,0,0,1,820.674,557.832)">
                <text x="82.115px" y="68.931px" style="font-family:'AvenirNext-Medium', 'Avenir Next', sans-serif;font-weight:500;font-size:25px;fill:rgb(35,31,32);">App,<tspan x="137.34px 143.59px 157.34px 163.815px " y="68.931px 68.931px 68.931px 68.931px "> Fil</tspan>es</text>
                <text x="61.265px" y="102.264px" style="font-family:'AvenirNext-Medium', 'Avenir Next', sans-serif;font-weight:500;font-size:25px;fill:rgb(35,31,32);">or Containers</text>
                <g transform="matrix(29.1667,0,0,29.1667,184.209,135.598)">
                </g>
                <text x="93.647px" y="135.598px" style="font-family:'AvenirNext-Bold', 'Avenir Next', sans-serif;font-weight:700;font-size:29.167px;fill:rgb(35,31,32);">v1.2.3</text>
            </g>
        </g>
    </g>
    <g transform="matrix(1,0,0,1,364.632,341.462)">
        <g transform="matrix(37.5,0,0,37.5,229.53,71.4449)">
        </g>
        <text x="96.555px" y="71.445px" style="font-family:'AvenirNext-Medium', 'Avenir Next', sans-serif;font-weight:500;font-size:37.5px;fill:rgb(35,31,32);">A<tspan x="124.342px 139.042px 152.505px 163.342px 176.092px 197.542px 217.192px " y="71.445px 71.445px 71.445px 71.445px 71.445px 71.445px 71.445px ">rtifact</tspan></text>
    </g>
    <g transform="matrix(1,0,0,1,200.745,-16.6365)">
        <path d="M457.345,396.125L457.345,442.657C457.345,455.498 446.92,465.923 434.079,465.923L219.78,465.923C206.939,465.923 196.513,455.498 196.513,442.657L196.513,396.125C196.513,383.284 206.939,372.859 219.78,372.859L434.079,372.859C446.92,372.859 457.345,383.284 457.345,396.125Z" style="fill:none;stroke:rgb(35,31,32);stroke-width:4.17px;"/>
    </g>
    <g transform="matrix(1,0,0,1,26.7175,341.462)">
        <g transform="matrix(37.5,0,0,37.5,247.796,71.4449)">
        </g>
        <text x="100.984px" y="71.445px" style="font-family:'AvenirNext-Medium', 'Avenir Next', sans-serif;font-weight:500;font-size:37.5px;fill:rgb(35,31,32);">R<tspan x="124.684px 147.296px 172.121px 182.959px 200.734px 214.196px 228.896px " y="71.445px 71.445px 71.445px 71.445px 71.445px 71.445px 71.445px ">egistry</tspan></text>
    </g>
    <g transform="matrix(1,0,0,1,-125.822,-16.6365)">
        <path d="M457.345,396.125L457.345,442.657C457.345,455.498 446.92,465.923 434.079,465.923L219.78,465.923C206.939,465.923 196.513,455.498 196.513,442.657L196.513,396.125C196.513,383.284 206.939,372.859 219.78,372.859L434.079,372.859C446.92,372.859 457.345,383.284 457.345,396.125Z" style="fill:none;stroke:rgb(35,31,32);stroke-width:4.17px;"/>
    </g>
    <g transform="matrix(1,0,0,1,-125.822,-16.6365)">
        <path d="M457.345,396.125L457.345,442.657C457.345,455.498 446.92,465.923 434.079,465.923L219.78,465.923C206.939,465.923 196.513,455.498 196.513,442.657L196.513,396.125C196.513,383.284 206.939,372.859 219.78,372.859L434.079,372.859C446.92,372.859 457.345,383.284 457.345,396.125Z" style="fill:none;stroke:rgb(35,31,32);stroke-width:4.17px;"/>
    </g>
    <g transform="matrix(1,0,0,1,58.3592,478.317)">
        <g transform="matrix(37.5,0,0,37.5,211.823,71.4449)">
        </g>
        <text x="73.673px" y="71.445px" style="font-family:'AvenirNext-Medium', 'Avenir Next', sans-serif;font-weight:500;font-size:37.5px;fill:rgb(35,31,32);">N<tspan x="103.748px 127.748px 141.211px 152.048px 164.798px 175.636px 198.248px " y="71.445px 71.445px 71.445px 71.445px 71.445px 71.445px 71.445px ">otifier</tspan></text>
    </g>
    <g transform="matrix(1,0,0,1,200.745,117.15)">
        <path d="M457.345,396.125L457.345,442.657C457.345,455.498 446.92,465.923 434.079,465.923L219.78,465.923C206.939,465.923 196.513,455.498 196.513,442.657L196.513,396.125C196.513,383.284 206.939,372.859 219.78,372.859L434.079,372.859C446.92,372.859 457.345,383.284 457.345,396.125Z" style="fill:none;stroke:rgb(35,31,32);stroke-width:4.17px;"/>
    </g>
    <g transform="matrix(1,0,0,1,381.175,478.317)">
        <g transform="matrix(37.5,0,0,37.5,202.805,71.4449)">
        </g>
        <text x="90.192px" y="71.445px" style="font-family:'AvenirNext-Medium', 'Avenir Next', sans-serif;font-weight:500;font-size:37.5px;fill:rgb(35,31,32);">C<tspan x="117.192px 138.642px 158.292px 181.317px " y="71.445px 71.445px 71.445px 71.445px ">ache</tspan></text>
    </g>
    <g transform="matrix(1,0,0,1,-125.822,117.15)">
        <path d="M457.345,396.125L457.345,442.657C457.345,455.498 446.92,465.923 434.079,465.923L219.78,465.923C206.939,465.923 196.513,455.498 196.513,442.657L196.513,396.125C196.513,383.284 206.939,372.859 219.78,372.859L434.079,372.859C446.92,372.859 457.345,383.284 457.345,396.125Z" style="fill:none;stroke:rgb(35,31,32);stroke-width:4.17px;"/>
    </g>
    <g transform="matrix(1,0,0,1,10.6051,2.67337)">
        <text x="59.129px" y="65.757px" style="font-family:'HiraginoSans-W5', 'Hiragino Sans', sans-serif;font-weight:500;font-size:29.167px;fill:rgb(35,31,32);">・</text>
        <text x="87.567px" y="65.757px" style="font-family:'AvenirNext-Medium', 'Avenir Next', sans-serif;font-weight:500;font-size:29.167px;fill:rgb(35,31,32);">G<tspan x="109.529px 116.354px 125.221px 141.525px 157.771px 175.592px 182.154px 198.983px 214.967px 221.821px 237.804px 252.883px 265.104px 281.088px " y="65.757px 65.757px 65.757px 65.757px 65.757px 65.757px 65.757px 65.757px 65.757px 65.757px 65.757px 65.757px 65.757px 65.757px ">ithub Releases</tspan></text>
        <text x="59.129px" y="107.424px" style="font-family:'HiraginoSans-W5', 'Hiragino Sans', sans-serif;font-weight:500;font-size:29.167px;fill:rgb(35,31,32);">・</text>
        <text x="87.567px" y="107.424px" style="font-family:'AvenirNext-Medium', 'Avenir Next', sans-serif;font-weight:500;font-size:29.167px;fill:rgb(35,31,32);">A<tspan x="107.575px 135.663px 151.529px 158.092px 173.958px " y="107.424px 107.424px 107.424px 107.424px 107.424px ">WS S3</tspan></text>
        <text x="59.129px" y="149.091px" style="font-family:'HiraginoSans-W5', 'Hiragino Sans', sans-serif;font-weight:500;font-size:29.167px;fill:rgb(35,31,32);">・</text>
        <text x="87.567px" y="149.091px" style="font-family:'AvenirNext-Medium', 'Avenir Next', sans-serif;font-weight:500;font-size:29.167px;fill:rgb(35,31,32);">G<tspan x="109.529px 126.592px 143.654px 161.358px 168.213px 184.196px 190.758px 210.679px 217.533px 234.596px 250.842px 268.633px 275.196px 291.063px 299.929px 316.992px 326.442px 341.521px 359.225px " y="149.091px 149.091px 149.091px 149.091px 149.091px 149.091px 149.091px 149.091px 149.091px 149.091px 149.091px 149.091px 149.091px 149.091px 149.091px 149.091px 149.091px 149.091px 149.091px ">oogle Cloud Storage</tspan></text>
        <text x="59.129px" y="190.757px" style="font-family:'HiraginoSans-W5', 'Hiragino Sans', sans-serif;font-weight:500;font-size:29.167px;fill:rgb(35,31,32);">・</text>
        <text x="87.567px" y="190.757px" style="font-family:'AvenirNext-Medium', 'Avenir Next', sans-serif;font-weight:500;font-size:29.167px;fill:rgb(35,31,32);">C<tspan x="107.488px 124.55px 140.796px 149.663px 164.742px 171.567px 187.813px 203.796px 213.625px 220.188px 237.017px 253px 270.704px 277.529px 289.75px 298.617px 308.446px " y="190.757px 190.757px 190.757px 190.757px 190.757px 190.757px 190.757px 190.757px 190.757px 190.757px 190.757px 190.757px 190.757px 190.757px 190.757px 190.757px 190.757px ">ontainer Registry</tspan></text>
        <text x="59.129px" y="232.424px" style="font-family:'HiraginoSans-W5', 'Hiragino Sans', sans-serif;font-weight:500;font-size:29.167px;fill:rgb(35,31,32);">・</text>
        <g transform="matrix(29.1667,0,0,29.1667,252.008,232.424)">
        </g>
        <text x="87.567px" y="232.424px" style="font-family:'AvenirNext-Medium', 'Avenir Next', sans-serif;font-weight:500;font-size:29.167px;fill:rgb(35,31,32);">G<tspan x="109.529px 126.708px 143.333px 163.254px 169.817px 185.683px 201.667px 211.496px 225.467px 241.45px " y="232.424px 232.424px 232.424px 232.424px 232.424px 232.424px 232.424px 232.424px 232.424px 232.424px ">RPC Server</tspan></text>
    </g>
    <g transform="matrix(1,0,0,1,87.1108,288.065)">
        <text x="59.129px" y="58.845px" style="font-family:'AvenirNext-Bold', 'Avenir Next', sans-serif;font-weight:700;font-size:20.833px;fill:rgb(35,31,32);">1<tspan x="72.067px " y="58.845px ">.</tspan></text>
        <g transform="matrix(20.8333,0,0,20.8333,144.004,58.8449)">
        </g>
        <text x="81.858px" y="58.845px" style="font-family:'AvenirNext-Medium', 'Avenir Next', sans-serif;font-weight:500;font-size:20.833px;fill:rgb(35,31,32);">P<tspan x="92.379px 104.567px 109.463px 114.358px 119.233px 130.838px " y="58.845px 58.845px 58.845px 58.845px 58.845px 58.845px ">olling</tspan></text>
    </g>
    <g transform="matrix(1,0,0,1,196.111,288.065)">
        <text x="59.129px" y="58.845px" style="font-family:'AvenirNext-Bold', 'Avenir Next', sans-serif;font-weight:700;font-size:20.833px;fill:rgb(35,31,32);">5<tspan x="72.067px " y="58.845px ">.</tspan></text>
        <g transform="matrix(20.8333,0,0,20.8333,173.171,58.8449)">
        </g>
        <text x="81.858px" y="58.845px" style="font-family:'AvenirNext-Medium', 'Avenir Next', sans-serif;font-weight:500;font-size:20.833px;fill:rgb(35,31,32);">R<tspan x="93.879px 105.296px 117.983px 130.171px 137.192px 143.525px 148.4px 160.004px " y="58.845px 58.845px 58.845px 58.845px 58.845px 58.845px 58.845px 58.845px ">eporting</tspan></text>
    </g>
    <g transform="matrix(1,0,0,1,87.3626,545.754)">
        <text x="59.129px" y="58.845px" style="font-family:'AvenirNext-Bold', 'Avenir Next', sans-serif;font-weight:700;font-size:20.833px;fill:rgb(35,31,32);">6<tspan x="72.067px " y="58.845px ">.</tspan></text>
        <g transform="matrix(20.8333,0,0,20.8333,129.442,58.8449)">
        </g>
        <text x="81.858px" y="58.845px" style="font-family:'AvenirNext-Medium', 'Avenir Next', sans-serif;font-weight:500;font-size:20.833px;fill:rgb(35,31,32);">S<tspan x="93.192px 104.608px 116.213px " y="58.845px 58.845px 58.845px ">end</tspan></text>
    </g>
    <g transform="matrix(1,0,0,1,417.417,288.065)">
        <text x="59.129px" y="58.845px" style="font-family:'AvenirNext-Bold', 'Avenir Next', sans-serif;font-weight:700;font-size:20.833px;fill:rgb(35,31,32);">2<tspan x="72.067px " y="58.845px ">.</tspan></text>
        <g transform="matrix(20.8333,0,0,20.8333,177.65,58.8449)">
        </g>
        <text x="81.858px" y="58.845px" style="font-family:'AvenirNext-Medium', 'Avenir Next', sans-serif;font-weight:500;font-size:20.833px;fill:rgb(35,31,32);">D<tspan x="97.192px 109.379px 124.963px 136.567px 141.463px 153.65px 164.421px " y="58.845px 58.845px 58.845px 58.845px 58.845px 58.845px 58.845px ">ownload</tspan></text>
    </g>
    <g transform="matrix(1,0,0,1,417.417,545.754)">
        <text x="59.129px" y="58.845px" style="font-family:'AvenirNext-Bold', 'Avenir Next', sans-serif;font-weight:700;font-size:20.833px;fill:rgb(35,31,32);">3<tspan x="72.067px " y="58.845px ">.</tspan></text>
        <g transform="matrix(20.8333,0,0,20.8333,153.817,58.8449)">
        </g>
        <text x="81.858px" y="58.845px" style="font-family:'AvenirNext-Medium', 'Avenir Next', sans-serif;font-weight:500;font-size:20.833px;fill:rgb(35,31,32);">S<tspan x="93.192px 99.525px 111.713px 118.463px 129.233px 141.879px " y="58.845px 58.845px 58.845px 58.845px 58.845px 58.845px ">torage</tspan></text>
    </g>
    <g transform="matrix(1,0,0,1,679.912,418.11)">
        <text x="59.129px" y="58.845px" style="font-family:'AvenirNext-Bold', 'Avenir Next', sans-serif;font-weight:700;font-size:20.833px;fill:rgb(35,31,32);">4<tspan x="72.067px " y="58.845px ">.</tspan></text>
        <g transform="matrix(20.8333,0,0,20.8333,196.192,58.8449)">
        </g>
        <text x="81.858px" y="58.845px" style="font-family:'AvenirNext-Medium', 'Avenir Next', sans-serif;font-weight:500;font-size:20.833px;fill:rgb(35,31,32);">D<tspan x="97.192px 108.608px 121.296px 126.192px 138.379px 148.358px 166.317px 177.733px 189.338px " y="58.845px 58.845px 58.845px 58.845px 58.845px 58.845px 58.845px 58.845px 58.845px ">eployment</tspan></text>
    </g>
    <g transform="matrix(1,0,0,1,340.605,668.49)">
        <text x="59.129px" y="65.757px" style="font-family:'HiraginoSans-W5', 'Hiragino Sans', sans-serif;font-weight:500;font-size:29.167px;fill:rgb(35,31,32);">・</text>
        <text x="87.567px" y="65.757px" style="font-family:'AvenirNext-Medium', 'Avenir Next', sans-serif;font-weight:500;font-size:29.167px;fill:rgb(35,31,32);">F<tspan x="102.879px 109.704px 116.558px 132.542px 139.104px 151.325px 165.296px 177.517px 186.383px 202.367px " y="65.757px 65.757px 65.757px 65.757px 65.757px 65.757px 65.757px 65.757px 65.757px 65.757px ">ile system</tspan></text>
        <text x="59.129px" y="107.424px" style="font-family:'HiraginoSans-W5', 'Hiragino Sans', sans-serif;font-weight:500;font-size:29.167px;fill:rgb(35,31,32);">・</text>
        <text x="87.567px" y="107.424px" style="font-family:'AvenirNext-Medium', 'Avenir Next', sans-serif;font-weight:500;font-size:29.167px;fill:rgb(35,31,32);">A<tspan x="107.575px 135.663px 151.529px 158.092px 173.958px " y="107.424px 107.424px 107.424px 107.424px 107.424px ">WS S3</tspan></text>
        <text x="59.129px" y="149.091px" style="font-family:'HiraginoSans-W5', 'Hiragino Sans', sans-serif;font-weight:500;font-size:29.167px;fill:rgb(35,31,32);">・</text>
        <g transform="matrix(29.1667,0,0,29.1667,375.938,149.091)">
        </g>
        <text x="87.567px" y="149.091px" style="font-family:'AvenirNext-Medium', 'Avenir Next', sans-serif;font-weight:500;font-size:29.167px;fill:rgb(35,31,32);">G<tspan x="109.529px 126.592px 143.654px 161.358px 168.213px 184.196px 190.758px 210.679px 217.533px 234.596px 250.842px 268.633px 275.196px 291.063px 299.929px 316.992px 326.442px 341.521px 359.225px " y="149.091px 149.091px 149.091px 149.091px 149.091px 149.091px 149.091px 149.091px 149.091px 149.091px 149.091px 149.091px 149.091px 149.091px 149.091px 149.091px 149.091px 149.091px 149.091px ">oogle Cloud Storage</tspan></text>
    </g>
    <g transform="matrix(1,0,0,1,-142,32)">
        <g transform="matrix(0.772828,0.0861095,-0.066796,0.996286,120.756,-45.2409)">
            <path d="M526.178,18.317L546.728,16.541" style="fill:none;stroke:rgb(35,31,32);stroke-width:2.51px;"/>
        </g>
        <g transform="matrix(0.772828,0.0861095,-0.066796,0.996286,120.756,101.033)">
            <path d="M526.178,18.317L546.728,16.541" style="fill:none;stroke:rgb(35,31,32);stroke-width:2.51px;"/>
        </g>
        <g transform="matrix(0.999999,-0.0016333,0.00165906,0.984475,-0.0300972,0.900564)">
            <path d="M542.558,18.591L542.312,166.893" style="fill:none;stroke:rgb(35,31,32);stroke-width:2.52px;"/>
        </g>
    </g>
    <g transform="matrix(1,0,0,1,10.6051,668.49)">
        <text x="59.129px" y="65.757px" style="font-family:'HiraginoSans-W5', 'Hiragino Sans', sans-serif;font-weight:500;font-size:29.167px;fill:rgb(35,31,32);">・</text>
        <text x="87.567px" y="65.757px" style="font-family:'AvenirNext-Medium', 'Avenir Next', sans-serif;font-weight:500;font-size:29.167px;fill:rgb(35,31,32);">S<tspan x="103.433px 110.288px 125.367px 139.046px " y="65.757px 65.757px 65.757px 65.757px ">lack</tspan></text>
        <text x="59.129px" y="107.424px" style="font-family:'HiraginoSans-W5', 'Hiragino Sans', sans-serif;font-weight:500;font-size:29.167px;fill:rgb(35,31,32);">・</text>
        <g transform="matrix(29.1667,0,0,29.1667,142.663,107.424)">
        </g>
        <text x="87.567px" y="107.424px" style="font-family:'AvenirNext-Medium', 'Avenir Next', sans-serif;font-weight:500;font-size:29.167px;fill:rgb(35,31,32);">M<tspan x="113.175px 128.254px 135.079px " y="107.424px 107.424px 107.424px ">ail</tspan></text>
    </g>
    <g transform="matrix(0.948006,0,0,0.921137,-103.513,2.17022)">
        <path d="M843.689,365.313L843.689,655.541C843.689,674.987 828.349,690.774 809.454,690.774L177.679,690.774C158.784,690.774 143.444,674.987 143.444,655.541L143.444,365.313C143.444,345.867 158.784,330.079 177.679,330.079L809.454,330.079C828.349,330.079 843.689,345.867 843.689,365.313Z" style="fill:none;stroke:rgb(35,31,32);stroke-width:4.46px;"/>
    </g>
    <g transform="matrix(1,0,0,1,0,22)">
        <g transform="matrix(0.471595,0,0,1,134.414,-59.2254)">
            <g>
                <rect x="352.918" y="652.587" width="269.48" height="46.127" style="fill:white;"/>
            </g>
        </g>
        <g transform="matrix(1,0,0,1,252.838,561.931)">
            <g transform="matrix(29.1667,0,0,29.1667,152.459,65.1449)">
            </g>
            <text x="70.647px" y="65.145px" style="font-family:'AvenirNext-DemiBold', 'Avenir Next', sans-serif;font-weight:600;font-size:29.167px;fill:rgb(35,31,32);">D<tspan x="94.388px 112.588px 137.497px " y="65.145px 65.145px 65.145px ">ewy</tspan></text>
        </g>
    </g>
    <g transform="matrix(0.99948,-0.0322396,0.0322396,0.99948,-76.9099,-35.5036)">
        <g transform="matrix(0.99948,0.0322396,-0.0322396,0.99948,75.7253,37.9647)">
            <path d="M134.297,267.204L140.547,257.829L146.797,267.204" style="fill:none;stroke:rgb(35,31,32);stroke-width:4.17px;stroke-linejoin:miter;stroke-miterlimit:10;"/>
            <path d="M140.547,354.526L140.547,257.829" style="fill:none;stroke:rgb(35,31,32);stroke-width:4.17px;"/>
        </g>
    </g>
    <g transform="matrix(0.99948,-0.0322396,0.0322396,0.99948,30.0901,-35.5036)">
        <g transform="matrix(0.99948,0.0322396,-0.0322396,0.99948,-31.2191,34.515)">
            <path d="M241.297,267.204L247.547,257.829L253.797,267.204" style="fill:none;stroke:rgb(35,31,32);stroke-width:4.17px;stroke-linejoin:miter;stroke-miterlimit:10;"/>
            <path d="M247.547,354.526L247.547,257.829" style="fill:none;stroke:rgb(35,31,32);stroke-width:4.17px;"/>
        </g>
    </g>
    <g transform="matrix(0.99948,-0.0322396,0.0322396,0.99948,-76.9099,295.496)">
        <g transform="matrix(0.99948,0.0322396,-0.0322396,0.99948,86.3966,-292.863)">
            <path d="M134.297,672.395L140.547,681.77L146.797,672.395" style="fill:none;stroke:rgb(35,31,32);stroke-width:4.17px;stroke-linejoin:miter;stroke-miterlimit:10;"/>
            <path d="M140.547,681.77L140.547,585.073" style="fill:none;stroke:rgb(35,31,32);stroke-width:4.17px;"/>
        </g>
    </g>
    <g transform="matrix(0.99948,-0.0322396,0.0322396,0.99948,250.083,295.496)">
        <g transform="matrix(0.99948,0.0322396,-0.0322396,0.99948,-240.426,-303.405)">
            <path d="M461.29,672.395L467.54,681.77L473.79,672.395" style="fill:none;stroke:rgb(35,31,32);stroke-width:4.17px;stroke-linejoin:miter;stroke-miterlimit:10;"/>
            <path d="M467.54,681.77L467.54,585.073" style="fill:none;stroke:rgb(35,31,32);stroke-width:4.17px;"/>
        </g>
    </g>
    <g transform="matrix(1,0,0,1,-9.22245,-37.528)">
        <g transform="matrix(-0.453464,0.892293,-1.45077,-0.800374,1374.75,642.465)">
            <g transform="matrix(-0.482895,-0.538353,0.875301,-0.273591,129.905,900.643)">
                <path d="M832.898,541.303L837.892,551.404L826.648,552.129" style="fill:none;stroke:rgb(35,31,32);stroke-width:4.17px;stroke-linejoin:miter;stroke-miterlimit:10;"/>
                <path d="M696.955,470.033C696.955,470.033 816.511,539.059 837.892,551.404" style="fill:none;stroke:rgb(35,31,32);stroke-width:4.17px;"/>
            </g>
        </g>
        <g transform="matrix(0.546017,0.838857,-1.41853,0.856214,1157.29,-3.98927)">
            <g transform="matrix(0.516585,-0.506113,0.85585,0.329432,-557.545,594.732)">
                <path d="M826.648,387.938L837.892,388.663L832.898,398.763" style="fill:none;stroke:rgb(35,31,32);stroke-width:4.17px;stroke-linejoin:miter;stroke-miterlimit:10;"/>
                <path d="M696.955,470.033C696.955,470.033 816.511,401.008 837.892,388.663" style="fill:none;stroke:rgb(35,31,32);stroke-width:4.17px;stroke-dasharray:4.17,8.33,0,0,0,0;"/>
            </g>
        </g>
    </g>
    <g transform="matrix(1,0,0,1,-88.4305,-51.4353)">
        <path d="M533.962,175.942C533.962,175.942 557.673,175.586 557.78,200.775" style="fill:none;stroke:rgb(35,31,32);stroke-width:4.17px;"/>
    </g>
    <g transform="matrix(0.999952,-0.0103505,0.00978967,1.05724,-90.4121,-57.5224)">
        <path d="M557.969,200.22L556.053,395.994" style="fill:none;stroke:rgb(35,31,32);stroke-width:4.05px;"/>
    </g>
    <g transform="matrix(0.322827,-0.0103982,0.00335699,0.999946,271.982,-45.7497)">
        <g transform="matrix(3.0973,0.0322079,-0.0103982,0.999946,-842.886,36.9873)">
            <path d="M420.04,130.756L410.665,124.506L420.04,118.256" style="fill:none;stroke:rgb(35,31,32);stroke-width:4.17px;stroke-linejoin:miter;stroke-miterlimit:10;"/>
            <path d="M444.954,124.506L410.665,124.506" style="fill:none;stroke:rgb(35,31,32);stroke-width:4.17px;"/>
        </g>
    </g>
</svg>
