<?xml version="1.0" encoding="UTF-8" standalone="no"?>
<!DOCTYPE svg PUBLIC "-//W3C//DTD SVG 1.1//EN" "http://www.w3.org/Graphics/SVG/1.1/DTD/svg11.dtd">
<svg width="100%" height="100%" viewBox="0 0 898 473" version="1.1" xmlns="http://www.w3.org/2000/svg" xmlns:xlink="http://www.w3.org/1999/xlink" xml:space="preserve" xmlns:serif="http://www.serif.com/" style="fill-rule:evenodd;clip-rule:evenodd;stroke-linecap:round;stroke-linejoin:round;stroke-miterlimit:1.5;">
    <g transform="matrix(0.828999,0,0,0.543607,1.54691,0.105834)">
        <rect x="-1.866" y="-0.129" width="1082.8" height="869.085" style="fill:white;"/>
    </g>
    <g id="Supervisor" transform="matrix(1,0,0,1,-9.77537,-67.9186)">
        <g transform="matrix(1,0,0,1,-162,0)">
            <g transform="matrix(1,0,0,-0.915828,-71.0029,409.503)">
                <path d="M296.346,284.252L313.025,317.609L279.668,317.609L296.346,284.252Z" style="stroke:rgb(35,31,32);stroke-width:2.61px;"/>
            </g>
            <g transform="matrix(1,0,0,1,204.394,79.0271)">
                <g transform="matrix(29.1667,0,0,29.1667,59.1292,65.1449)">
                    <path d="M0.439,-0.56C0.426,-0.577 0.407,-0.592 0.383,-0.604C0.358,-0.615 0.334,-0.621 0.309,-0.621C0.294,-0.621 0.28,-0.619 0.265,-0.616C0.25,-0.612 0.237,-0.606 0.225,-0.599C0.213,-0.591 0.203,-0.581 0.196,-0.569C0.188,-0.556 0.184,-0.541 0.184,-0.524C0.184,-0.508 0.187,-0.494 0.194,-0.483C0.201,-0.472 0.21,-0.462 0.222,-0.454C0.233,-0.446 0.247,-0.439 0.264,-0.433C0.281,-0.427 0.299,-0.421 0.319,-0.415C0.342,-0.408 0.365,-0.399 0.39,-0.39C0.414,-0.381 0.436,-0.368 0.457,-0.353C0.477,-0.338 0.494,-0.318 0.507,-0.295C0.52,-0.272 0.526,-0.243 0.526,-0.208C0.526,-0.17 0.519,-0.137 0.505,-0.109C0.491,-0.08 0.472,-0.057 0.449,-0.038C0.426,-0.019 0.398,-0.005 0.367,0.004C0.336,0.013 0.303,0.018 0.268,0.018C0.222,0.018 0.177,0.01 0.133,-0.008C0.089,-0.025 0.053,-0.05 0.025,-0.083L0.115,-0.167C0.132,-0.143 0.156,-0.124 0.185,-0.11C0.214,-0.096 0.242,-0.089 0.27,-0.089C0.285,-0.089 0.3,-0.091 0.315,-0.095C0.33,-0.098 0.344,-0.104 0.357,-0.113C0.369,-0.122 0.379,-0.132 0.387,-0.146C0.394,-0.159 0.398,-0.175 0.398,-0.194C0.398,-0.213 0.394,-0.228 0.385,-0.241C0.376,-0.253 0.365,-0.264 0.35,-0.273C0.335,-0.282 0.318,-0.289 0.298,-0.296C0.278,-0.303 0.257,-0.31 0.235,-0.317C0.214,-0.324 0.192,-0.332 0.171,-0.341C0.15,-0.35 0.131,-0.363 0.114,-0.378C0.096,-0.393 0.083,-0.412 0.072,-0.435C0.061,-0.457 0.056,-0.485 0.056,-0.518C0.056,-0.554 0.064,-0.585 0.079,-0.611C0.094,-0.637 0.113,-0.659 0.138,-0.676C0.162,-0.693 0.19,-0.705 0.221,-0.714C0.252,-0.722 0.283,-0.726 0.315,-0.726C0.351,-0.726 0.388,-0.72 0.425,-0.707C0.462,-0.694 0.494,-0.675 0.521,-0.65L0.439,-0.56Z" style="fill:rgb(35,31,32);fill-rule:nonzero;"/>
                </g>
                <g transform="matrix(29.1667,0,0,29.1667,77.3292,65.1449)">
                    <path d="M0,-0.48L0.133,-0.48L0.267,-0.131L0.269,-0.131L0.388,-0.48L0.513,-0.48L0.286,0.103C0.277,0.125 0.268,0.145 0.258,0.162C0.248,0.179 0.236,0.193 0.222,0.205C0.208,0.216 0.192,0.225 0.173,0.231C0.154,0.237 0.131,0.24 0.104,0.24C0.094,0.24 0.084,0.24 0.074,0.239C0.063,0.238 0.053,0.236 0.042,0.233L0.052,0.129C0.06,0.132 0.068,0.134 0.076,0.135C0.083,0.136 0.09,0.136 0.097,0.136C0.11,0.136 0.12,0.135 0.129,0.132C0.138,0.129 0.145,0.124 0.151,0.118C0.157,0.111 0.162,0.103 0.167,0.094C0.172,0.085 0.177,0.074 0.182,0.061L0.206,-0L0,-0.48Z" style="fill:rgb(35,31,32);fill-rule:nonzero;"/>
                </g>
                <g transform="matrix(29.1667,0,0,29.1667,93.75,65.1449)">
                    <path d="M0.335,-0.352C0.324,-0.366 0.31,-0.378 0.291,-0.389C0.272,-0.399 0.252,-0.404 0.23,-0.404C0.211,-0.404 0.193,-0.4 0.177,-0.392C0.161,-0.384 0.153,-0.371 0.153,-0.352C0.153,-0.333 0.162,-0.32 0.18,-0.313C0.197,-0.305 0.223,-0.297 0.257,-0.289C0.275,-0.285 0.293,-0.28 0.312,-0.273C0.33,-0.266 0.347,-0.258 0.362,-0.247C0.377,-0.236 0.389,-0.222 0.398,-0.206C0.407,-0.189 0.412,-0.169 0.412,-0.146C0.412,-0.117 0.407,-0.092 0.396,-0.072C0.385,-0.051 0.37,-0.035 0.352,-0.022C0.333,-0.009 0.312,-0 0.288,0.006C0.263,0.011 0.238,0.014 0.212,0.014C0.175,0.014 0.138,0.007 0.103,-0.007C0.068,-0.02 0.038,-0.04 0.015,-0.065L0.094,-0.139C0.107,-0.122 0.125,-0.107 0.146,-0.096C0.167,-0.085 0.191,-0.079 0.217,-0.079C0.226,-0.079 0.235,-0.08 0.244,-0.082C0.253,-0.084 0.261,-0.087 0.269,-0.092C0.276,-0.096 0.282,-0.102 0.287,-0.109C0.292,-0.116 0.294,-0.125 0.294,-0.136C0.294,-0.156 0.285,-0.17 0.267,-0.179C0.248,-0.188 0.221,-0.196 0.184,-0.205C0.166,-0.209 0.149,-0.214 0.132,-0.221C0.115,-0.227 0.099,-0.235 0.086,-0.246C0.073,-0.256 0.062,-0.269 0.054,-0.284C0.046,-0.299 0.042,-0.318 0.042,-0.341C0.042,-0.368 0.048,-0.391 0.059,-0.41C0.069,-0.429 0.084,-0.445 0.102,-0.458C0.12,-0.47 0.14,-0.479 0.163,-0.485C0.186,-0.491 0.209,-0.494 0.233,-0.494C0.268,-0.494 0.302,-0.488 0.335,-0.476C0.368,-0.464 0.394,-0.446 0.413,-0.421L0.335,-0.352Z" style="fill:rgb(35,31,32);fill-rule:nonzero;"/>
                </g>
                <g transform="matrix(29.1667,0,0,29.1667,108.158,65.1449)">
                    <path d="M0.003,-0.384L0.003,-0.48L0.087,-0.48L0.087,-0.619L0.205,-0.619L0.205,-0.48L0.325,-0.48L0.325,-0.384L0.205,-0.384L0.205,-0.161C0.205,-0.14 0.209,-0.122 0.217,-0.108C0.224,-0.094 0.241,-0.087 0.268,-0.087C0.276,-0.087 0.285,-0.088 0.294,-0.09C0.303,-0.091 0.312,-0.094 0.319,-0.097L0.323,-0.003C0.312,0.001 0.3,0.004 0.285,0.007C0.27,0.009 0.256,0.01 0.243,0.01C0.211,0.01 0.185,0.006 0.165,-0.004C0.145,-0.013 0.129,-0.025 0.118,-0.041C0.106,-0.056 0.098,-0.074 0.094,-0.095C0.089,-0.115 0.087,-0.137 0.087,-0.16L0.087,-0.384L0.003,-0.384Z" style="fill:rgb(35,31,32);fill-rule:nonzero;"/>
                </g>
                <g transform="matrix(29.1667,0,0,29.1667,119.533,65.1449)">
                    <path d="M0.41,-0.288C0.41,-0.303 0.408,-0.318 0.404,-0.332C0.399,-0.346 0.392,-0.358 0.383,-0.369C0.374,-0.38 0.362,-0.388 0.348,-0.395C0.333,-0.401 0.316,-0.404 0.297,-0.404C0.261,-0.404 0.231,-0.393 0.206,-0.372C0.181,-0.35 0.167,-0.322 0.164,-0.288L0.41,-0.288ZM0.53,-0.234L0.53,-0.218C0.53,-0.213 0.53,-0.207 0.529,-0.202L0.164,-0.202C0.165,-0.185 0.17,-0.169 0.178,-0.155C0.185,-0.14 0.195,-0.128 0.208,-0.118C0.221,-0.107 0.235,-0.099 0.251,-0.093C0.267,-0.087 0.284,-0.084 0.301,-0.084C0.331,-0.084 0.356,-0.09 0.377,-0.101C0.398,-0.112 0.415,-0.127 0.428,-0.146L0.508,-0.082C0.461,-0.018 0.392,0.014 0.302,0.014C0.265,0.014 0.23,0.008 0.199,-0.004C0.168,-0.015 0.14,-0.032 0.118,-0.053C0.095,-0.074 0.077,-0.1 0.064,-0.132C0.05,-0.163 0.044,-0.198 0.044,-0.237C0.044,-0.276 0.05,-0.311 0.064,-0.343C0.077,-0.374 0.094,-0.401 0.117,-0.424C0.14,-0.446 0.167,-0.463 0.198,-0.476C0.229,-0.488 0.262,-0.494 0.298,-0.494C0.331,-0.494 0.362,-0.489 0.391,-0.478C0.419,-0.467 0.443,-0.45 0.464,-0.429C0.485,-0.407 0.501,-0.38 0.513,-0.348C0.524,-0.315 0.53,-0.277 0.53,-0.234Z" style="fill:rgb(35,31,32);fill-rule:nonzero;"/>
                </g>
                <g transform="matrix(29.1667,0,0,29.1667,137.733,65.1449)">
                    <path d="M0.645,-0.494C0.676,-0.494 0.703,-0.489 0.726,-0.478C0.748,-0.467 0.766,-0.452 0.781,-0.434C0.795,-0.416 0.805,-0.395 0.812,-0.372C0.819,-0.349 0.822,-0.325 0.822,-0.3L0.822,-0L0.702,-0L0.702,-0.266C0.702,-0.28 0.701,-0.295 0.699,-0.31C0.697,-0.325 0.693,-0.339 0.686,-0.352C0.679,-0.364 0.67,-0.374 0.659,-0.382C0.647,-0.39 0.631,-0.394 0.612,-0.394C0.593,-0.394 0.577,-0.39 0.564,-0.382C0.551,-0.374 0.54,-0.364 0.531,-0.351C0.522,-0.338 0.516,-0.324 0.512,-0.309C0.508,-0.293 0.506,-0.277 0.506,-0.262L0.506,-0L0.386,-0L0.386,-0.29C0.386,-0.32 0.379,-0.345 0.365,-0.365C0.35,-0.384 0.328,-0.394 0.297,-0.394C0.279,-0.394 0.263,-0.39 0.25,-0.383C0.237,-0.375 0.226,-0.365 0.218,-0.353C0.209,-0.341 0.203,-0.327 0.199,-0.312C0.194,-0.296 0.192,-0.28 0.192,-0.264L0.192,-0L0.072,-0L0.072,-0.48L0.186,-0.48L0.186,-0.403L0.188,-0.403C0.193,-0.415 0.201,-0.426 0.21,-0.437C0.219,-0.448 0.229,-0.457 0.242,-0.466C0.254,-0.475 0.268,-0.482 0.284,-0.487C0.3,-0.492 0.318,-0.494 0.337,-0.494C0.374,-0.494 0.405,-0.486 0.43,-0.469C0.455,-0.452 0.474,-0.43 0.487,-0.403C0.503,-0.432 0.524,-0.455 0.551,-0.471C0.578,-0.486 0.609,-0.494 0.645,-0.494Z" style="fill:rgb(35,31,32);fill-rule:nonzero;"/>
                </g>
                <g transform="matrix(29.1667,0,0,29.1667,165.15,65.1449)">
                    <path d="M0.56,-0L0.446,-0L0.446,-0.072L0.444,-0.072C0.427,-0.044 0.404,-0.023 0.375,-0.008C0.345,0.007 0.313,0.014 0.279,0.014C0.242,0.014 0.21,0.007 0.181,-0.007C0.152,-0.02 0.127,-0.039 0.107,-0.062C0.086,-0.085 0.07,-0.112 0.06,-0.143C0.049,-0.173 0.043,-0.207 0.043,-0.242C0.043,-0.277 0.049,-0.31 0.06,-0.341C0.071,-0.372 0.087,-0.398 0.108,-0.421C0.129,-0.444 0.153,-0.462 0.182,-0.475C0.211,-0.488 0.242,-0.494 0.276,-0.494C0.298,-0.494 0.318,-0.492 0.335,-0.487C0.352,-0.482 0.368,-0.475 0.381,-0.468C0.394,-0.461 0.405,-0.453 0.414,-0.444C0.423,-0.435 0.431,-0.427 0.437,-0.419L0.44,-0.419L0.44,-0.756L0.56,-0.756L0.56,-0ZM0.165,-0.242C0.165,-0.223 0.168,-0.205 0.174,-0.186C0.179,-0.167 0.188,-0.151 0.199,-0.136C0.21,-0.121 0.225,-0.109 0.242,-0.1C0.259,-0.091 0.28,-0.086 0.303,-0.086C0.325,-0.086 0.345,-0.091 0.362,-0.1C0.379,-0.109 0.394,-0.12 0.407,-0.135C0.419,-0.15 0.428,-0.166 0.435,-0.185C0.441,-0.203 0.444,-0.221 0.444,-0.24C0.444,-0.259 0.441,-0.277 0.435,-0.296C0.428,-0.315 0.419,-0.331 0.407,-0.346C0.394,-0.361 0.379,-0.373 0.362,-0.382C0.345,-0.391 0.325,-0.396 0.303,-0.396C0.28,-0.396 0.259,-0.392 0.242,-0.383C0.225,-0.374 0.21,-0.362 0.199,-0.347C0.188,-0.332 0.179,-0.316 0.174,-0.298C0.168,-0.279 0.165,-0.261 0.165,-0.242Z" style="fill:rgb(35,31,32);fill-rule:nonzero;"/>
                </g>
            </g>
        </g>
        <g transform="matrix(1,0,0,1,-95,16)">
            <g transform="matrix(1,0,0,-0.915828,-71.0029,469.6)">
                <path d="M296.346,284.252L313.025,317.609L279.668,317.609L296.346,284.252Z" style="stroke:rgb(35,31,32);stroke-width:2.61px;"/>
            </g>
            <g transform="matrix(1,0,0,1,204.394,139.124)">
                <g transform="matrix(29.1667,0,0,29.1667,59.1292,65.1449)">
                    <path d="M0.078,-0.708L0.329,-0.708C0.375,-0.708 0.421,-0.702 0.468,-0.69C0.515,-0.678 0.557,-0.658 0.594,-0.631C0.631,-0.603 0.662,-0.567 0.685,-0.522C0.708,-0.476 0.72,-0.421 0.72,-0.354C0.72,-0.292 0.708,-0.239 0.685,-0.194C0.662,-0.149 0.631,-0.113 0.594,-0.084C0.557,-0.055 0.515,-0.034 0.468,-0.021C0.421,-0.007 0.375,-0 0.329,-0L0.078,-0L0.078,-0.708ZM0.309,-0.11C0.342,-0.11 0.374,-0.114 0.407,-0.122C0.44,-0.129 0.469,-0.142 0.496,-0.161C0.522,-0.179 0.543,-0.204 0.56,-0.235C0.577,-0.266 0.585,-0.306 0.585,-0.354C0.585,-0.405 0.577,-0.446 0.56,-0.478C0.543,-0.51 0.522,-0.535 0.496,-0.553C0.469,-0.571 0.44,-0.583 0.407,-0.59C0.374,-0.597 0.342,-0.6 0.309,-0.6L0.204,-0.6L0.204,-0.11L0.309,-0.11Z" style="fill:rgb(35,31,32);fill-rule:nonzero;"/>
                </g>
                <g transform="matrix(29.1667,0,0,29.1667,82.8709,65.1449)">
                    <path d="M0.41,-0.288C0.41,-0.303 0.408,-0.318 0.404,-0.332C0.399,-0.346 0.392,-0.358 0.383,-0.369C0.374,-0.38 0.362,-0.388 0.348,-0.395C0.333,-0.401 0.316,-0.404 0.297,-0.404C0.261,-0.404 0.231,-0.393 0.206,-0.372C0.181,-0.35 0.167,-0.322 0.164,-0.288L0.41,-0.288ZM0.53,-0.234L0.53,-0.218C0.53,-0.213 0.53,-0.207 0.529,-0.202L0.164,-0.202C0.165,-0.185 0.17,-0.169 0.178,-0.155C0.185,-0.14 0.195,-0.128 0.208,-0.118C0.221,-0.107 0.235,-0.099 0.251,-0.093C0.267,-0.087 0.284,-0.084 0.301,-0.084C0.331,-0.084 0.356,-0.09 0.377,-0.101C0.398,-0.112 0.415,-0.127 0.428,-0.146L0.508,-0.082C0.461,-0.018 0.392,0.014 0.302,0.014C0.265,0.014 0.23,0.008 0.199,-0.004C0.168,-0.015 0.14,-0.032 0.118,-0.053C0.095,-0.074 0.077,-0.1 0.064,-0.132C0.05,-0.163 0.044,-0.198 0.044,-0.237C0.044,-0.276 0.05,-0.311 0.064,-0.343C0.077,-0.374 0.094,-0.401 0.117,-0.424C0.14,-0.446 0.167,-0.463 0.198,-0.476C0.229,-0.488 0.262,-0.494 0.298,-0.494C0.331,-0.494 0.362,-0.489 0.391,-0.478C0.419,-0.467 0.443,-0.45 0.464,-0.429C0.485,-0.407 0.501,-0.38 0.513,-0.348C0.524,-0.315 0.53,-0.277 0.53,-0.234Z" style="fill:rgb(35,31,32);fill-rule:nonzero;"/>
                </g>
                <g transform="matrix(29.1667,0,0,29.1667,101.071,65.1449)">
                    <path d="M0.004,-0.48L0.134,-0.48L0.234,-0.136L0.236,-0.136L0.339,-0.48L0.467,-0.48L0.571,-0.136L0.573,-0.136L0.675,-0.48L0.8,-0.48L0.634,-0L0.512,-0L0.403,-0.336L0.401,-0.336L0.293,-0L0.171,-0L0.004,-0.48Z" style="fill:rgb(35,31,32);fill-rule:nonzero;"/>
                </g>
                <g transform="matrix(29.1667,0,0,29.1667,125.979,65.1449)">
                    <path d="M0,-0.48L0.133,-0.48L0.267,-0.131L0.269,-0.131L0.388,-0.48L0.513,-0.48L0.286,0.103C0.277,0.125 0.268,0.145 0.258,0.162C0.248,0.179 0.236,0.193 0.222,0.205C0.208,0.216 0.192,0.225 0.173,0.231C0.154,0.237 0.131,0.24 0.104,0.24C0.094,0.24 0.084,0.24 0.074,0.239C0.063,0.238 0.053,0.236 0.042,0.233L0.052,0.129C0.06,0.132 0.068,0.134 0.076,0.135C0.083,0.136 0.09,0.136 0.097,0.136C0.11,0.136 0.12,0.135 0.129,0.132C0.138,0.129 0.145,0.124 0.151,0.118C0.157,0.111 0.162,0.103 0.167,0.094C0.172,0.085 0.177,0.074 0.182,0.061L0.206,-0L0,-0.48Z" style="fill:rgb(35,31,32);fill-rule:nonzero;"/>
                </g>
            </g>
        </g>
        <g transform="matrix(1,0,0,1,-163,7)">
            <path d="M226.485,162.823L226.445,203.926" style="fill:none;stroke:rgb(35,31,32);stroke-width:2.29px;"/>
            <g transform="matrix(9.28912e-05,1,-1,9.28912e-05,430.351,-22.5737)">
                <path d="M226.485,162.823L226.445,203.926" style="fill:none;stroke:rgb(35,31,32);stroke-width:2.29px;"/>
            </g>
        </g>
        <g transform="matrix(1,0,0,1,-96,76)">
            <path d="M226.485,162.823L226.445,203.926" style="fill:none;stroke:rgb(35,31,32);stroke-width:2.29px;"/>
            <g transform="matrix(9.28912e-05,1,-1,9.28912e-05,430.351,-22.5737)">
                <path d="M226.485,162.823L226.445,203.926" style="fill:none;stroke:rgb(35,31,32);stroke-width:2.29px;"/>
            </g>
        </g>
        <g transform="matrix(1,0,0,1,-24,85)">
            <g transform="matrix(1,0,0,1,204.394,199.558)">
                <g transform="matrix(29.1667,0,0,29.1667,59.1292,65.1449)">
                    <path d="M0.589,-0.542C0.57,-0.567 0.546,-0.586 0.516,-0.598C0.486,-0.609 0.457,-0.615 0.428,-0.615C0.391,-0.615 0.358,-0.608 0.328,-0.595C0.298,-0.582 0.272,-0.563 0.251,-0.54C0.229,-0.517 0.212,-0.489 0.201,-0.458C0.189,-0.427 0.183,-0.393 0.183,-0.356C0.183,-0.317 0.189,-0.282 0.2,-0.25C0.211,-0.218 0.228,-0.191 0.249,-0.168C0.27,-0.145 0.295,-0.127 0.324,-0.114C0.353,-0.101 0.386,-0.095 0.423,-0.095C0.461,-0.095 0.495,-0.102 0.524,-0.118C0.553,-0.133 0.577,-0.152 0.595,-0.177L0.696,-0.106C0.665,-0.067 0.626,-0.036 0.581,-0.015C0.536,0.007 0.483,0.018 0.422,0.018C0.367,0.018 0.316,0.009 0.27,-0.01C0.223,-0.028 0.183,-0.054 0.15,-0.087C0.117,-0.12 0.091,-0.159 0.072,-0.205C0.053,-0.25 0.044,-0.301 0.044,-0.356C0.044,-0.413 0.054,-0.464 0.074,-0.51C0.093,-0.555 0.12,-0.594 0.155,-0.626C0.189,-0.658 0.229,-0.683 0.276,-0.7C0.323,-0.717 0.373,-0.726 0.428,-0.726C0.451,-0.726 0.474,-0.724 0.499,-0.72C0.524,-0.715 0.547,-0.708 0.57,-0.7C0.593,-0.691 0.614,-0.679 0.634,-0.666C0.654,-0.653 0.671,-0.637 0.685,-0.618L0.589,-0.542Z" style="fill:rgb(35,31,32);fill-rule:nonzero;"/>
                </g>
                <g transform="matrix(29.1667,0,0,29.1667,80.8875,65.1449)">
                    <path d="M0.51,-0L0.396,-0L0.396,-0.077L0.394,-0.077C0.383,-0.053 0.365,-0.032 0.339,-0.014C0.312,0.005 0.281,0.014 0.245,0.014C0.214,0.014 0.187,0.009 0.165,-0.003C0.142,-0.014 0.124,-0.028 0.11,-0.046C0.095,-0.064 0.085,-0.085 0.078,-0.108C0.071,-0.131 0.068,-0.155 0.068,-0.18L0.068,-0.48L0.188,-0.48L0.188,-0.214C0.188,-0.2 0.189,-0.185 0.191,-0.17C0.193,-0.155 0.197,-0.141 0.204,-0.129C0.211,-0.116 0.22,-0.106 0.232,-0.098C0.243,-0.09 0.259,-0.086 0.278,-0.086C0.297,-0.086 0.313,-0.09 0.328,-0.098C0.342,-0.105 0.354,-0.115 0.363,-0.127C0.372,-0.139 0.378,-0.153 0.383,-0.169C0.388,-0.184 0.39,-0.2 0.39,-0.216L0.39,-0.48L0.51,-0.48L0.51,-0Z" style="fill:rgb(35,31,32);fill-rule:nonzero;"/>
                </g>
                <g transform="matrix(29.1667,0,0,29.1667,99.3209,65.1449)">
                    <path d="M0.072,-0.48L0.187,-0.48L0.187,-0.4L0.189,-0.4C0.202,-0.428 0.221,-0.451 0.245,-0.468C0.269,-0.485 0.297,-0.494 0.329,-0.494C0.334,-0.494 0.339,-0.494 0.344,-0.494C0.349,-0.493 0.354,-0.492 0.358,-0.491L0.358,-0.381C0.35,-0.383 0.343,-0.384 0.338,-0.385C0.332,-0.386 0.326,-0.386 0.321,-0.386C0.294,-0.386 0.272,-0.381 0.255,-0.371C0.238,-0.361 0.225,-0.349 0.216,-0.335C0.207,-0.321 0.2,-0.307 0.197,-0.292C0.194,-0.277 0.192,-0.266 0.192,-0.257L0.192,-0L0.072,-0L0.072,-0.48Z" style="fill:rgb(35,31,32);fill-rule:nonzero;"/>
                </g>
                <g transform="matrix(29.1667,0,0,29.1667,111.396,65.1449)">
                    <path d="M0.072,-0.48L0.187,-0.48L0.187,-0.4L0.189,-0.4C0.202,-0.428 0.221,-0.451 0.245,-0.468C0.269,-0.485 0.297,-0.494 0.329,-0.494C0.334,-0.494 0.339,-0.494 0.344,-0.494C0.349,-0.493 0.354,-0.492 0.358,-0.491L0.358,-0.381C0.35,-0.383 0.343,-0.384 0.338,-0.385C0.332,-0.386 0.326,-0.386 0.321,-0.386C0.294,-0.386 0.272,-0.381 0.255,-0.371C0.238,-0.361 0.225,-0.349 0.216,-0.335C0.207,-0.321 0.2,-0.307 0.197,-0.292C0.194,-0.277 0.192,-0.266 0.192,-0.257L0.192,-0L0.072,-0L0.072,-0.48Z" style="fill:rgb(35,31,32);fill-rule:nonzero;"/>
                </g>
                <g transform="matrix(29.1667,0,0,29.1667,122.946,65.1449)">
                    <path d="M0.41,-0.288C0.41,-0.303 0.408,-0.318 0.404,-0.332C0.399,-0.346 0.392,-0.358 0.383,-0.369C0.374,-0.38 0.362,-0.388 0.348,-0.395C0.333,-0.401 0.316,-0.404 0.297,-0.404C0.261,-0.404 0.231,-0.393 0.206,-0.372C0.181,-0.35 0.167,-0.322 0.164,-0.288L0.41,-0.288ZM0.53,-0.234L0.53,-0.218C0.53,-0.213 0.53,-0.207 0.529,-0.202L0.164,-0.202C0.165,-0.185 0.17,-0.169 0.178,-0.155C0.185,-0.14 0.195,-0.128 0.208,-0.118C0.221,-0.107 0.235,-0.099 0.251,-0.093C0.267,-0.087 0.284,-0.084 0.301,-0.084C0.331,-0.084 0.356,-0.09 0.377,-0.101C0.398,-0.112 0.415,-0.127 0.428,-0.146L0.508,-0.082C0.461,-0.018 0.392,0.014 0.302,0.014C0.265,0.014 0.23,0.008 0.199,-0.004C0.168,-0.015 0.14,-0.032 0.118,-0.053C0.095,-0.074 0.077,-0.1 0.064,-0.132C0.05,-0.163 0.044,-0.198 0.044,-0.237C0.044,-0.276 0.05,-0.311 0.064,-0.343C0.077,-0.374 0.094,-0.401 0.117,-0.424C0.14,-0.446 0.167,-0.463 0.198,-0.476C0.229,-0.488 0.262,-0.494 0.298,-0.494C0.331,-0.494 0.362,-0.489 0.391,-0.478C0.419,-0.467 0.443,-0.45 0.464,-0.429C0.485,-0.407 0.501,-0.38 0.513,-0.348C0.524,-0.315 0.53,-0.277 0.53,-0.234Z" style="fill:rgb(35,31,32);fill-rule:nonzero;"/>
                </g>
                <g transform="matrix(29.1667,0,0,29.1667,141.146,65.1449)">
                    <path d="M0.072,-0.48L0.186,-0.48L0.186,-0.403L0.188,-0.403C0.199,-0.427 0.217,-0.448 0.244,-0.467C0.27,-0.485 0.301,-0.494 0.337,-0.494C0.368,-0.494 0.395,-0.489 0.418,-0.478C0.44,-0.467 0.458,-0.452 0.473,-0.434C0.487,-0.416 0.497,-0.395 0.504,-0.372C0.511,-0.349 0.514,-0.325 0.514,-0.3L0.514,-0L0.394,-0L0.394,-0.266C0.394,-0.28 0.393,-0.295 0.391,-0.31C0.389,-0.325 0.385,-0.339 0.378,-0.352C0.371,-0.364 0.362,-0.374 0.351,-0.382C0.339,-0.39 0.323,-0.394 0.304,-0.394C0.285,-0.394 0.268,-0.39 0.254,-0.383C0.24,-0.375 0.229,-0.365 0.22,-0.353C0.211,-0.341 0.204,-0.327 0.199,-0.312C0.194,-0.296 0.192,-0.28 0.192,-0.264L0.192,-0L0.072,-0L0.072,-0.48Z" style="fill:rgb(35,31,32);fill-rule:nonzero;"/>
                </g>
                <g transform="matrix(29.1667,0,0,29.1667,159.579,65.1449)">
                    <path d="M0.003,-0.384L0.003,-0.48L0.087,-0.48L0.087,-0.619L0.205,-0.619L0.205,-0.48L0.325,-0.48L0.325,-0.384L0.205,-0.384L0.205,-0.161C0.205,-0.14 0.209,-0.122 0.217,-0.108C0.224,-0.094 0.241,-0.087 0.268,-0.087C0.276,-0.087 0.285,-0.088 0.294,-0.09C0.303,-0.091 0.312,-0.094 0.319,-0.097L0.323,-0.003C0.312,0.001 0.3,0.004 0.285,0.007C0.27,0.009 0.256,0.01 0.243,0.01C0.211,0.01 0.185,0.006 0.165,-0.004C0.145,-0.013 0.129,-0.025 0.118,-0.041C0.106,-0.056 0.098,-0.074 0.094,-0.095C0.089,-0.115 0.087,-0.137 0.087,-0.16L0.087,-0.384L0.003,-0.384Z" style="fill:rgb(35,31,32);fill-rule:nonzero;"/>
                </g>
                <g transform="matrix(29.1667,0,0,29.1667,179.179,65.1449)">
                    <path d="M0.3,-0.708L0.409,-0.708L0.714,-0L0.57,-0L0.504,-0.162L0.197,-0.162L0.133,-0L-0.008,-0L0.3,-0.708ZM0.46,-0.27L0.351,-0.558L0.24,-0.27L0.46,-0.27Z" style="fill:rgb(35,31,32);fill-rule:nonzero;"/>
                </g>
                <g transform="matrix(29.1667,0,0,29.1667,201.229,65.1449)">
                    <path d="M0.187,-0.48L0.187,-0.413L0.19,-0.413C0.196,-0.422 0.204,-0.432 0.214,-0.442C0.223,-0.451 0.235,-0.46 0.249,-0.468C0.263,-0.475 0.279,-0.482 0.297,-0.487C0.314,-0.492 0.334,-0.494 0.356,-0.494C0.39,-0.494 0.421,-0.488 0.45,-0.475C0.479,-0.462 0.503,-0.444 0.524,-0.421C0.545,-0.398 0.561,-0.372 0.572,-0.341C0.583,-0.31 0.589,-0.277 0.589,-0.242C0.589,-0.207 0.584,-0.173 0.573,-0.143C0.562,-0.112 0.546,-0.085 0.526,-0.062C0.505,-0.039 0.481,-0.02 0.452,-0.007C0.423,0.007 0.39,0.014 0.353,0.014C0.319,0.014 0.288,0.007 0.26,-0.007C0.231,-0.021 0.209,-0.04 0.194,-0.064L0.192,-0.064L0.192,0.24L0.072,0.24L0.072,-0.48L0.187,-0.48ZM0.467,-0.242C0.467,-0.261 0.464,-0.279 0.459,-0.298C0.453,-0.316 0.444,-0.332 0.433,-0.347C0.422,-0.362 0.407,-0.374 0.39,-0.383C0.373,-0.392 0.352,-0.396 0.329,-0.396C0.307,-0.396 0.287,-0.391 0.27,-0.382C0.253,-0.373 0.238,-0.361 0.226,-0.346C0.213,-0.331 0.204,-0.315 0.198,-0.296C0.191,-0.277 0.188,-0.259 0.188,-0.24C0.188,-0.221 0.191,-0.203 0.198,-0.185C0.204,-0.166 0.213,-0.15 0.226,-0.135C0.238,-0.12 0.253,-0.109 0.27,-0.1C0.287,-0.091 0.307,-0.086 0.329,-0.086C0.352,-0.086 0.373,-0.091 0.39,-0.1C0.407,-0.109 0.422,-0.121 0.433,-0.136C0.444,-0.151 0.453,-0.167 0.459,-0.186C0.464,-0.205 0.467,-0.223 0.467,-0.242Z" style="fill:rgb(35,31,32);fill-rule:nonzero;"/>
                </g>
                <g transform="matrix(29.1667,0,0,29.1667,221.15,65.1449)">
                    <path d="M0.187,-0.48L0.187,-0.413L0.19,-0.413C0.196,-0.422 0.204,-0.432 0.214,-0.442C0.223,-0.451 0.235,-0.46 0.249,-0.468C0.263,-0.475 0.279,-0.482 0.297,-0.487C0.314,-0.492 0.334,-0.494 0.356,-0.494C0.39,-0.494 0.421,-0.488 0.45,-0.475C0.479,-0.462 0.503,-0.444 0.524,-0.421C0.545,-0.398 0.561,-0.372 0.572,-0.341C0.583,-0.31 0.589,-0.277 0.589,-0.242C0.589,-0.207 0.584,-0.173 0.573,-0.143C0.562,-0.112 0.546,-0.085 0.526,-0.062C0.505,-0.039 0.481,-0.02 0.452,-0.007C0.423,0.007 0.39,0.014 0.353,0.014C0.319,0.014 0.288,0.007 0.26,-0.007C0.231,-0.021 0.209,-0.04 0.194,-0.064L0.192,-0.064L0.192,0.24L0.072,0.24L0.072,-0.48L0.187,-0.48ZM0.467,-0.242C0.467,-0.261 0.464,-0.279 0.459,-0.298C0.453,-0.316 0.444,-0.332 0.433,-0.347C0.422,-0.362 0.407,-0.374 0.39,-0.383C0.373,-0.392 0.352,-0.396 0.329,-0.396C0.307,-0.396 0.287,-0.391 0.27,-0.382C0.253,-0.373 0.238,-0.361 0.226,-0.346C0.213,-0.331 0.204,-0.315 0.198,-0.296C0.191,-0.277 0.188,-0.259 0.188,-0.24C0.188,-0.221 0.191,-0.203 0.198,-0.185C0.204,-0.166 0.213,-0.15 0.226,-0.135C0.238,-0.12 0.253,-0.109 0.27,-0.1C0.287,-0.091 0.307,-0.086 0.329,-0.086C0.352,-0.086 0.373,-0.091 0.39,-0.1C0.407,-0.109 0.422,-0.121 0.433,-0.136C0.444,-0.151 0.453,-0.167 0.459,-0.186C0.464,-0.205 0.467,-0.223 0.467,-0.242Z" style="fill:rgb(35,31,32);fill-rule:nonzero;"/>
                </g>
                <g transform="matrix(29.1667,0,0,29.1667,241.071,65.1449)">
                    <rect x="0.074" y="-0.756" width="0.12" height="0.756" style="fill:rgb(35,31,32);fill-rule:nonzero;"/>
                </g>
                <g transform="matrix(29.1667,0,0,29.1667,250.346,65.1449)">
                    <path d="M0.074,-0.48L0.194,-0.48L0.194,-0L0.074,-0L0.074,-0.48ZM0.057,-0.643C0.057,-0.662 0.064,-0.679 0.079,-0.694C0.093,-0.708 0.111,-0.715 0.133,-0.715C0.155,-0.715 0.173,-0.708 0.189,-0.695C0.204,-0.681 0.211,-0.664 0.211,-0.643C0.211,-0.622 0.204,-0.605 0.189,-0.592C0.173,-0.578 0.155,-0.571 0.133,-0.571C0.111,-0.571 0.093,-0.578 0.079,-0.593C0.064,-0.607 0.057,-0.624 0.057,-0.643Z" style="fill:rgb(35,31,32);fill-rule:nonzero;"/>
                </g>
                <g transform="matrix(29.1667,0,0,29.1667,259.621,65.1449)">
                    <path d="M0.4,-0.347C0.391,-0.36 0.377,-0.372 0.358,-0.381C0.339,-0.39 0.32,-0.394 0.301,-0.394C0.279,-0.394 0.26,-0.39 0.243,-0.381C0.226,-0.372 0.213,-0.36 0.202,-0.345C0.191,-0.33 0.182,-0.314 0.177,-0.296C0.172,-0.277 0.169,-0.259 0.169,-0.24C0.169,-0.221 0.172,-0.203 0.178,-0.185C0.183,-0.166 0.192,-0.15 0.203,-0.135C0.214,-0.12 0.229,-0.109 0.246,-0.1C0.263,-0.091 0.282,-0.086 0.305,-0.086C0.324,-0.086 0.342,-0.09 0.361,-0.097C0.38,-0.104 0.395,-0.115 0.406,-0.129L0.481,-0.053C0.461,-0.032 0.436,-0.015 0.405,-0.004C0.374,0.008 0.34,0.014 0.304,0.014C0.269,0.014 0.235,0.008 0.204,-0.003C0.172,-0.014 0.144,-0.031 0.121,-0.053C0.097,-0.075 0.078,-0.102 0.065,-0.133C0.051,-0.164 0.044,-0.2 0.044,-0.24C0.044,-0.279 0.051,-0.314 0.065,-0.345C0.078,-0.376 0.097,-0.403 0.12,-0.425C0.143,-0.447 0.171,-0.464 0.202,-0.476C0.233,-0.488 0.266,-0.494 0.301,-0.494C0.336,-0.494 0.371,-0.487 0.404,-0.474C0.437,-0.461 0.463,-0.442 0.482,-0.419L0.4,-0.347Z" style="fill:rgb(35,31,32);fill-rule:nonzero;"/>
                </g>
                <g transform="matrix(29.1667,0,0,29.1667,275.313,65.1449)">
                    <path d="M0.37,-0.061L0.367,-0.061C0.355,-0.04 0.336,-0.022 0.309,-0.009C0.282,0.005 0.252,0.012 0.218,0.012C0.199,0.012 0.179,0.01 0.158,0.005C0.136,-0 0.117,-0.009 0.1,-0.021C0.082,-0.032 0.067,-0.048 0.056,-0.067C0.044,-0.086 0.038,-0.109 0.038,-0.137C0.038,-0.173 0.048,-0.202 0.069,-0.223C0.089,-0.244 0.115,-0.261 0.147,-0.272C0.179,-0.283 0.215,-0.291 0.254,-0.295C0.293,-0.298 0.331,-0.3 0.368,-0.3L0.368,-0.312C0.368,-0.342 0.357,-0.364 0.336,-0.379C0.314,-0.393 0.288,-0.4 0.258,-0.4C0.233,-0.4 0.208,-0.395 0.185,-0.384C0.162,-0.373 0.142,-0.36 0.127,-0.345L0.065,-0.418C0.092,-0.443 0.124,-0.462 0.16,-0.475C0.195,-0.488 0.231,-0.494 0.268,-0.494C0.311,-0.494 0.346,-0.488 0.374,-0.476C0.401,-0.464 0.423,-0.448 0.439,-0.429C0.455,-0.41 0.466,-0.388 0.473,-0.364C0.479,-0.34 0.482,-0.316 0.482,-0.292L0.482,-0L0.37,-0L0.37,-0.061ZM0.368,-0.219L0.341,-0.219C0.322,-0.219 0.301,-0.218 0.28,-0.217C0.259,-0.215 0.239,-0.211 0.221,-0.206C0.203,-0.2 0.188,-0.192 0.176,-0.182C0.164,-0.171 0.158,-0.157 0.158,-0.139C0.158,-0.128 0.161,-0.118 0.166,-0.111C0.171,-0.103 0.177,-0.097 0.185,-0.092C0.193,-0.087 0.202,-0.084 0.212,-0.082C0.222,-0.08 0.232,-0.079 0.242,-0.079C0.283,-0.079 0.315,-0.09 0.336,-0.112C0.357,-0.134 0.368,-0.164 0.368,-0.202L0.368,-0.219Z" style="fill:rgb(35,31,32);fill-rule:nonzero;"/>
                </g>
                <g transform="matrix(29.1667,0,0,29.1667,292.813,65.1449)">
                    <path d="M0.003,-0.384L0.003,-0.48L0.087,-0.48L0.087,-0.619L0.205,-0.619L0.205,-0.48L0.325,-0.48L0.325,-0.384L0.205,-0.384L0.205,-0.161C0.205,-0.14 0.209,-0.122 0.217,-0.108C0.224,-0.094 0.241,-0.087 0.268,-0.087C0.276,-0.087 0.285,-0.088 0.294,-0.09C0.303,-0.091 0.312,-0.094 0.319,-0.097L0.323,-0.003C0.312,0.001 0.3,0.004 0.285,0.007C0.27,0.009 0.256,0.01 0.243,0.01C0.211,0.01 0.185,0.006 0.165,-0.004C0.145,-0.013 0.129,-0.025 0.118,-0.041C0.106,-0.056 0.098,-0.074 0.094,-0.095C0.089,-0.115 0.087,-0.137 0.087,-0.16L0.087,-0.384L0.003,-0.384Z" style="fill:rgb(35,31,32);fill-rule:nonzero;"/>
                </g>
                <g transform="matrix(29.1667,0,0,29.1667,304.188,65.1449)">
                    <path d="M0.074,-0.48L0.194,-0.48L0.194,-0L0.074,-0L0.074,-0.48ZM0.057,-0.643C0.057,-0.662 0.064,-0.679 0.079,-0.694C0.093,-0.708 0.111,-0.715 0.133,-0.715C0.155,-0.715 0.173,-0.708 0.189,-0.695C0.204,-0.681 0.211,-0.664 0.211,-0.643C0.211,-0.622 0.204,-0.605 0.189,-0.592C0.173,-0.578 0.155,-0.571 0.133,-0.571C0.111,-0.571 0.093,-0.578 0.079,-0.593C0.064,-0.607 0.057,-0.624 0.057,-0.643Z" style="fill:rgb(35,31,32);fill-rule:nonzero;"/>
                </g>
                <g transform="matrix(29.1667,0,0,29.1667,313.463,65.1449)">
                    <path d="M0.044,-0.242C0.044,-0.28 0.051,-0.315 0.065,-0.346C0.078,-0.377 0.097,-0.403 0.12,-0.425C0.143,-0.447 0.171,-0.464 0.203,-0.476C0.235,-0.488 0.269,-0.494 0.305,-0.494C0.341,-0.494 0.375,-0.488 0.407,-0.476C0.439,-0.464 0.467,-0.447 0.49,-0.425C0.513,-0.403 0.532,-0.377 0.546,-0.346C0.559,-0.315 0.566,-0.28 0.566,-0.242C0.566,-0.204 0.559,-0.169 0.546,-0.138C0.532,-0.107 0.513,-0.08 0.49,-0.058C0.467,-0.035 0.439,-0.018 0.407,-0.005C0.375,0.008 0.341,0.014 0.305,0.014C0.269,0.014 0.235,0.008 0.203,-0.005C0.171,-0.018 0.143,-0.035 0.12,-0.058C0.097,-0.08 0.078,-0.107 0.065,-0.138C0.051,-0.169 0.044,-0.204 0.044,-0.242ZM0.166,-0.242C0.166,-0.223 0.169,-0.205 0.175,-0.186C0.18,-0.167 0.189,-0.151 0.2,-0.136C0.211,-0.121 0.226,-0.109 0.243,-0.1C0.26,-0.091 0.281,-0.086 0.305,-0.086C0.329,-0.086 0.35,-0.091 0.367,-0.1C0.384,-0.109 0.399,-0.121 0.41,-0.136C0.421,-0.151 0.43,-0.167 0.436,-0.186C0.441,-0.205 0.444,-0.223 0.444,-0.242C0.444,-0.261 0.441,-0.279 0.436,-0.298C0.43,-0.316 0.421,-0.332 0.41,-0.347C0.399,-0.362 0.384,-0.374 0.367,-0.383C0.35,-0.392 0.329,-0.396 0.305,-0.396C0.281,-0.396 0.26,-0.392 0.243,-0.383C0.226,-0.374 0.211,-0.362 0.2,-0.347C0.189,-0.332 0.18,-0.316 0.175,-0.298C0.169,-0.279 0.166,-0.261 0.166,-0.242Z" style="fill:rgb(35,31,32);fill-rule:nonzero;"/>
                </g>
                <g transform="matrix(29.1667,0,0,29.1667,332.713,65.1449)">
                    <path d="M0.072,-0.48L0.186,-0.48L0.186,-0.403L0.188,-0.403C0.199,-0.427 0.217,-0.448 0.244,-0.467C0.27,-0.485 0.301,-0.494 0.337,-0.494C0.368,-0.494 0.395,-0.489 0.418,-0.478C0.44,-0.467 0.458,-0.452 0.473,-0.434C0.487,-0.416 0.497,-0.395 0.504,-0.372C0.511,-0.349 0.514,-0.325 0.514,-0.3L0.514,-0L0.394,-0L0.394,-0.266C0.394,-0.28 0.393,-0.295 0.391,-0.31C0.389,-0.325 0.385,-0.339 0.378,-0.352C0.371,-0.364 0.362,-0.374 0.351,-0.382C0.339,-0.39 0.323,-0.394 0.304,-0.394C0.285,-0.394 0.268,-0.39 0.254,-0.383C0.24,-0.375 0.229,-0.365 0.22,-0.353C0.211,-0.341 0.204,-0.327 0.199,-0.312C0.194,-0.296 0.192,-0.28 0.192,-0.264L0.192,-0L0.072,-0L0.072,-0.48Z" style="fill:rgb(35,31,32);fill-rule:nonzero;"/>
                </g>
            </g>
            <g transform="matrix(1,0,0,1,-8.53516,-72.0506)">
                <circle cx="233.878" cy="326.484" r="17.118" style="stroke:rgb(35,31,32);stroke-width:2.5px;"/>
            </g>
        </g>
        <g transform="matrix(1,0,0,1,-24,85)">
            <g transform="matrix(1,0,0,1,204.394,260.329)">
                <g transform="matrix(29.1667,0,0,29.1667,59.1292,65.1449)">
                    <path d="M0.078,-0.708L0.245,-0.708L0.574,-0.178L0.576,-0.178L0.576,-0.708L0.702,-0.708L0.702,-0L0.542,-0L0.206,-0.547L0.204,-0.547L0.204,-0L0.078,-0L0.078,-0.708Z" style="fill:rgb(35,31,32);fill-rule:nonzero;"/>
                </g>
                <g transform="matrix(29.1667,0,0,29.1667,83.3375,65.1449)">
                    <path d="M0.41,-0.288C0.41,-0.303 0.408,-0.318 0.404,-0.332C0.399,-0.346 0.392,-0.358 0.383,-0.369C0.374,-0.38 0.362,-0.388 0.348,-0.395C0.333,-0.401 0.316,-0.404 0.297,-0.404C0.261,-0.404 0.231,-0.393 0.206,-0.372C0.181,-0.35 0.167,-0.322 0.164,-0.288L0.41,-0.288ZM0.53,-0.234L0.53,-0.218C0.53,-0.213 0.53,-0.207 0.529,-0.202L0.164,-0.202C0.165,-0.185 0.17,-0.169 0.178,-0.155C0.185,-0.14 0.195,-0.128 0.208,-0.118C0.221,-0.107 0.235,-0.099 0.251,-0.093C0.267,-0.087 0.284,-0.084 0.301,-0.084C0.331,-0.084 0.356,-0.09 0.377,-0.101C0.398,-0.112 0.415,-0.127 0.428,-0.146L0.508,-0.082C0.461,-0.018 0.392,0.014 0.302,0.014C0.265,0.014 0.23,0.008 0.199,-0.004C0.168,-0.015 0.14,-0.032 0.118,-0.053C0.095,-0.074 0.077,-0.1 0.064,-0.132C0.05,-0.163 0.044,-0.198 0.044,-0.237C0.044,-0.276 0.05,-0.311 0.064,-0.343C0.077,-0.374 0.094,-0.401 0.117,-0.424C0.14,-0.446 0.167,-0.463 0.198,-0.476C0.229,-0.488 0.262,-0.494 0.298,-0.494C0.331,-0.494 0.362,-0.489 0.391,-0.478C0.419,-0.467 0.443,-0.45 0.464,-0.429C0.485,-0.407 0.501,-0.38 0.513,-0.348C0.524,-0.315 0.53,-0.277 0.53,-0.234Z" style="fill:rgb(35,31,32);fill-rule:nonzero;"/>
                </g>
                <g transform="matrix(29.1667,0,0,29.1667,101.538,65.1449)">
                    <path d="M0.004,-0.48L0.134,-0.48L0.234,-0.136L0.236,-0.136L0.339,-0.48L0.467,-0.48L0.571,-0.136L0.573,-0.136L0.675,-0.48L0.8,-0.48L0.634,-0L0.512,-0L0.403,-0.336L0.401,-0.336L0.293,-0L0.171,-0L0.004,-0.48Z" style="fill:rgb(35,31,32);fill-rule:nonzero;"/>
                </g>
                <g transform="matrix(29.1667,0,0,29.1667,134.671,65.1449)">
                    <path d="M0.3,-0.708L0.409,-0.708L0.714,-0L0.57,-0L0.504,-0.162L0.197,-0.162L0.133,-0L-0.008,-0L0.3,-0.708ZM0.46,-0.27L0.351,-0.558L0.24,-0.27L0.46,-0.27Z" style="fill:rgb(35,31,32);fill-rule:nonzero;"/>
                </g>
                <g transform="matrix(29.1667,0,0,29.1667,156.721,65.1449)">
                    <path d="M0.187,-0.48L0.187,-0.413L0.19,-0.413C0.196,-0.422 0.204,-0.432 0.214,-0.442C0.223,-0.451 0.235,-0.46 0.249,-0.468C0.263,-0.475 0.279,-0.482 0.297,-0.487C0.314,-0.492 0.334,-0.494 0.356,-0.494C0.39,-0.494 0.421,-0.488 0.45,-0.475C0.479,-0.462 0.503,-0.444 0.524,-0.421C0.545,-0.398 0.561,-0.372 0.572,-0.341C0.583,-0.31 0.589,-0.277 0.589,-0.242C0.589,-0.207 0.584,-0.173 0.573,-0.143C0.562,-0.112 0.546,-0.085 0.526,-0.062C0.505,-0.039 0.481,-0.02 0.452,-0.007C0.423,0.007 0.39,0.014 0.353,0.014C0.319,0.014 0.288,0.007 0.26,-0.007C0.231,-0.021 0.209,-0.04 0.194,-0.064L0.192,-0.064L0.192,0.24L0.072,0.24L0.072,-0.48L0.187,-0.48ZM0.467,-0.242C0.467,-0.261 0.464,-0.279 0.459,-0.298C0.453,-0.316 0.444,-0.332 0.433,-0.347C0.422,-0.362 0.407,-0.374 0.39,-0.383C0.373,-0.392 0.352,-0.396 0.329,-0.396C0.307,-0.396 0.287,-0.391 0.27,-0.382C0.253,-0.373 0.238,-0.361 0.226,-0.346C0.213,-0.331 0.204,-0.315 0.198,-0.296C0.191,-0.277 0.188,-0.259 0.188,-0.24C0.188,-0.221 0.191,-0.203 0.198,-0.185C0.204,-0.166 0.213,-0.15 0.226,-0.135C0.238,-0.12 0.253,-0.109 0.27,-0.1C0.287,-0.091 0.307,-0.086 0.329,-0.086C0.352,-0.086 0.373,-0.091 0.39,-0.1C0.407,-0.109 0.422,-0.121 0.433,-0.136C0.444,-0.151 0.453,-0.167 0.459,-0.186C0.464,-0.205 0.467,-0.223 0.467,-0.242Z" style="fill:rgb(35,31,32);fill-rule:nonzero;"/>
                </g>
                <g transform="matrix(29.1667,0,0,29.1667,176.642,65.1449)">
                    <path d="M0.187,-0.48L0.187,-0.413L0.19,-0.413C0.196,-0.422 0.204,-0.432 0.214,-0.442C0.223,-0.451 0.235,-0.46 0.249,-0.468C0.263,-0.475 0.279,-0.482 0.297,-0.487C0.314,-0.492 0.334,-0.494 0.356,-0.494C0.39,-0.494 0.421,-0.488 0.45,-0.475C0.479,-0.462 0.503,-0.444 0.524,-0.421C0.545,-0.398 0.561,-0.372 0.572,-0.341C0.583,-0.31 0.589,-0.277 0.589,-0.242C0.589,-0.207 0.584,-0.173 0.573,-0.143C0.562,-0.112 0.546,-0.085 0.526,-0.062C0.505,-0.039 0.481,-0.02 0.452,-0.007C0.423,0.007 0.39,0.014 0.353,0.014C0.319,0.014 0.288,0.007 0.26,-0.007C0.231,-0.021 0.209,-0.04 0.194,-0.064L0.192,-0.064L0.192,0.24L0.072,0.24L0.072,-0.48L0.187,-0.48ZM0.467,-0.242C0.467,-0.261 0.464,-0.279 0.459,-0.298C0.453,-0.316 0.444,-0.332 0.433,-0.347C0.422,-0.362 0.407,-0.374 0.39,-0.383C0.373,-0.392 0.352,-0.396 0.329,-0.396C0.307,-0.396 0.287,-0.391 0.27,-0.382C0.253,-0.373 0.238,-0.361 0.226,-0.346C0.213,-0.331 0.204,-0.315 0.198,-0.296C0.191,-0.277 0.188,-0.259 0.188,-0.24C0.188,-0.221 0.191,-0.203 0.198,-0.185C0.204,-0.166 0.213,-0.15 0.226,-0.135C0.238,-0.12 0.253,-0.109 0.27,-0.1C0.287,-0.091 0.307,-0.086 0.329,-0.086C0.352,-0.086 0.373,-0.091 0.39,-0.1C0.407,-0.109 0.422,-0.121 0.433,-0.136C0.444,-0.151 0.453,-0.167 0.459,-0.186C0.464,-0.205 0.467,-0.223 0.467,-0.242Z" style="fill:rgb(35,31,32);fill-rule:nonzero;"/>
                </g>
                <g transform="matrix(29.1667,0,0,29.1667,196.563,65.1449)">
                    <rect x="0.074" y="-0.756" width="0.12" height="0.756" style="fill:rgb(35,31,32);fill-rule:nonzero;"/>
                </g>
                <g transform="matrix(29.1667,0,0,29.1667,205.838,65.1449)">
                    <path d="M0.074,-0.48L0.194,-0.48L0.194,-0L0.074,-0L0.074,-0.48ZM0.057,-0.643C0.057,-0.662 0.064,-0.679 0.079,-0.694C0.093,-0.708 0.111,-0.715 0.133,-0.715C0.155,-0.715 0.173,-0.708 0.189,-0.695C0.204,-0.681 0.211,-0.664 0.211,-0.643C0.211,-0.622 0.204,-0.605 0.189,-0.592C0.173,-0.578 0.155,-0.571 0.133,-0.571C0.111,-0.571 0.093,-0.578 0.079,-0.593C0.064,-0.607 0.057,-0.624 0.057,-0.643Z" style="fill:rgb(35,31,32);fill-rule:nonzero;"/>
                </g>
                <g transform="matrix(29.1667,0,0,29.1667,215.113,65.1449)">
                    <path d="M0.4,-0.347C0.391,-0.36 0.377,-0.372 0.358,-0.381C0.339,-0.39 0.32,-0.394 0.301,-0.394C0.279,-0.394 0.26,-0.39 0.243,-0.381C0.226,-0.372 0.213,-0.36 0.202,-0.345C0.191,-0.33 0.182,-0.314 0.177,-0.296C0.172,-0.277 0.169,-0.259 0.169,-0.24C0.169,-0.221 0.172,-0.203 0.178,-0.185C0.183,-0.166 0.192,-0.15 0.203,-0.135C0.214,-0.12 0.229,-0.109 0.246,-0.1C0.263,-0.091 0.282,-0.086 0.305,-0.086C0.324,-0.086 0.342,-0.09 0.361,-0.097C0.38,-0.104 0.395,-0.115 0.406,-0.129L0.481,-0.053C0.461,-0.032 0.436,-0.015 0.405,-0.004C0.374,0.008 0.34,0.014 0.304,0.014C0.269,0.014 0.235,0.008 0.204,-0.003C0.172,-0.014 0.144,-0.031 0.121,-0.053C0.097,-0.075 0.078,-0.102 0.065,-0.133C0.051,-0.164 0.044,-0.2 0.044,-0.24C0.044,-0.279 0.051,-0.314 0.065,-0.345C0.078,-0.376 0.097,-0.403 0.12,-0.425C0.143,-0.447 0.171,-0.464 0.202,-0.476C0.233,-0.488 0.266,-0.494 0.301,-0.494C0.336,-0.494 0.371,-0.487 0.404,-0.474C0.437,-0.461 0.463,-0.442 0.482,-0.419L0.4,-0.347Z" style="fill:rgb(35,31,32);fill-rule:nonzero;"/>
                </g>
                <g transform="matrix(29.1667,0,0,29.1667,230.804,65.1449)">
                    <path d="M0.37,-0.061L0.367,-0.061C0.355,-0.04 0.336,-0.022 0.309,-0.009C0.282,0.005 0.252,0.012 0.218,0.012C0.199,0.012 0.179,0.01 0.158,0.005C0.136,-0 0.117,-0.009 0.1,-0.021C0.082,-0.032 0.067,-0.048 0.056,-0.067C0.044,-0.086 0.038,-0.109 0.038,-0.137C0.038,-0.173 0.048,-0.202 0.069,-0.223C0.089,-0.244 0.115,-0.261 0.147,-0.272C0.179,-0.283 0.215,-0.291 0.254,-0.295C0.293,-0.298 0.331,-0.3 0.368,-0.3L0.368,-0.312C0.368,-0.342 0.357,-0.364 0.336,-0.379C0.314,-0.393 0.288,-0.4 0.258,-0.4C0.233,-0.4 0.208,-0.395 0.185,-0.384C0.162,-0.373 0.142,-0.36 0.127,-0.345L0.065,-0.418C0.092,-0.443 0.124,-0.462 0.16,-0.475C0.195,-0.488 0.231,-0.494 0.268,-0.494C0.311,-0.494 0.346,-0.488 0.374,-0.476C0.401,-0.464 0.423,-0.448 0.439,-0.429C0.455,-0.41 0.466,-0.388 0.473,-0.364C0.479,-0.34 0.482,-0.316 0.482,-0.292L0.482,-0L0.37,-0L0.37,-0.061ZM0.368,-0.219L0.341,-0.219C0.322,-0.219 0.301,-0.218 0.28,-0.217C0.259,-0.215 0.239,-0.211 0.221,-0.206C0.203,-0.2 0.188,-0.192 0.176,-0.182C0.164,-0.171 0.158,-0.157 0.158,-0.139C0.158,-0.128 0.161,-0.118 0.166,-0.111C0.171,-0.103 0.177,-0.097 0.185,-0.092C0.193,-0.087 0.202,-0.084 0.212,-0.082C0.222,-0.08 0.232,-0.079 0.242,-0.079C0.283,-0.079 0.315,-0.09 0.336,-0.112C0.357,-0.134 0.368,-0.164 0.368,-0.202L0.368,-0.219Z" style="fill:rgb(35,31,32);fill-rule:nonzero;"/>
                </g>
                <g transform="matrix(29.1667,0,0,29.1667,248.304,65.1449)">
                    <path d="M0.003,-0.384L0.003,-0.48L0.087,-0.48L0.087,-0.619L0.205,-0.619L0.205,-0.48L0.325,-0.48L0.325,-0.384L0.205,-0.384L0.205,-0.161C0.205,-0.14 0.209,-0.122 0.217,-0.108C0.224,-0.094 0.241,-0.087 0.268,-0.087C0.276,-0.087 0.285,-0.088 0.294,-0.09C0.303,-0.091 0.312,-0.094 0.319,-0.097L0.323,-0.003C0.312,0.001 0.3,0.004 0.285,0.007C0.27,0.009 0.256,0.01 0.243,0.01C0.211,0.01 0.185,0.006 0.165,-0.004C0.145,-0.013 0.129,-0.025 0.118,-0.041C0.106,-0.056 0.098,-0.074 0.094,-0.095C0.089,-0.115 0.087,-0.137 0.087,-0.16L0.087,-0.384L0.003,-0.384Z" style="fill:rgb(35,31,32);fill-rule:nonzero;"/>
                </g>
                <g transform="matrix(29.1667,0,0,29.1667,259.679,65.1449)">
                    <path d="M0.074,-0.48L0.194,-0.48L0.194,-0L0.074,-0L0.074,-0.48ZM0.057,-0.643C0.057,-0.662 0.064,-0.679 0.079,-0.694C0.093,-0.708 0.111,-0.715 0.133,-0.715C0.155,-0.715 0.173,-0.708 0.189,-0.695C0.204,-0.681 0.211,-0.664 0.211,-0.643C0.211,-0.622 0.204,-0.605 0.189,-0.592C0.173,-0.578 0.155,-0.571 0.133,-0.571C0.111,-0.571 0.093,-0.578 0.079,-0.593C0.064,-0.607 0.057,-0.624 0.057,-0.643Z" style="fill:rgb(35,31,32);fill-rule:nonzero;"/>
                </g>
                <g transform="matrix(29.1667,0,0,29.1667,268.954,65.1449)">
                    <path d="M0.044,-0.242C0.044,-0.28 0.051,-0.315 0.065,-0.346C0.078,-0.377 0.097,-0.403 0.12,-0.425C0.143,-0.447 0.171,-0.464 0.203,-0.476C0.235,-0.488 0.269,-0.494 0.305,-0.494C0.341,-0.494 0.375,-0.488 0.407,-0.476C0.439,-0.464 0.467,-0.447 0.49,-0.425C0.513,-0.403 0.532,-0.377 0.546,-0.346C0.559,-0.315 0.566,-0.28 0.566,-0.242C0.566,-0.204 0.559,-0.169 0.546,-0.138C0.532,-0.107 0.513,-0.08 0.49,-0.058C0.467,-0.035 0.439,-0.018 0.407,-0.005C0.375,0.008 0.341,0.014 0.305,0.014C0.269,0.014 0.235,0.008 0.203,-0.005C0.171,-0.018 0.143,-0.035 0.12,-0.058C0.097,-0.08 0.078,-0.107 0.065,-0.138C0.051,-0.169 0.044,-0.204 0.044,-0.242ZM0.166,-0.242C0.166,-0.223 0.169,-0.205 0.175,-0.186C0.18,-0.167 0.189,-0.151 0.2,-0.136C0.211,-0.121 0.226,-0.109 0.243,-0.1C0.26,-0.091 0.281,-0.086 0.305,-0.086C0.329,-0.086 0.35,-0.091 0.367,-0.1C0.384,-0.109 0.399,-0.121 0.41,-0.136C0.421,-0.151 0.43,-0.167 0.436,-0.186C0.441,-0.205 0.444,-0.223 0.444,-0.242C0.444,-0.261 0.441,-0.279 0.436,-0.298C0.43,-0.316 0.421,-0.332 0.41,-0.347C0.399,-0.362 0.384,-0.374 0.367,-0.383C0.35,-0.392 0.329,-0.396 0.305,-0.396C0.281,-0.396 0.26,-0.392 0.243,-0.383C0.226,-0.374 0.211,-0.362 0.2,-0.347C0.189,-0.332 0.18,-0.316 0.175,-0.298C0.169,-0.279 0.166,-0.261 0.166,-0.242Z" style="fill:rgb(35,31,32);fill-rule:nonzero;"/>
                </g>
                <g transform="matrix(29.1667,0,0,29.1667,288.204,65.1449)">
                    <path d="M0.072,-0.48L0.186,-0.48L0.186,-0.403L0.188,-0.403C0.199,-0.427 0.217,-0.448 0.244,-0.467C0.27,-0.485 0.301,-0.494 0.337,-0.494C0.368,-0.494 0.395,-0.489 0.418,-0.478C0.44,-0.467 0.458,-0.452 0.473,-0.434C0.487,-0.416 0.497,-0.395 0.504,-0.372C0.511,-0.349 0.514,-0.325 0.514,-0.3L0.514,-0L0.394,-0L0.394,-0.266C0.394,-0.28 0.393,-0.295 0.391,-0.31C0.389,-0.325 0.385,-0.339 0.378,-0.352C0.371,-0.364 0.362,-0.374 0.351,-0.382C0.339,-0.39 0.323,-0.394 0.304,-0.394C0.285,-0.394 0.268,-0.39 0.254,-0.383C0.24,-0.375 0.229,-0.365 0.22,-0.353C0.211,-0.341 0.204,-0.327 0.199,-0.312C0.194,-0.296 0.192,-0.28 0.192,-0.264L0.192,-0L0.072,-0L0.072,-0.48Z" style="fill:rgb(35,31,32);fill-rule:nonzero;"/>
                </g>
            </g>
            <g transform="matrix(1,0,0,1,-8.53516,-12.2795)">
                <circle cx="233.878" cy="326.484" r="17.118" style="fill:none;stroke:rgb(35,31,32);stroke-width:2.5px;stroke-dasharray:2.5,5,0,0,0,0;"/>
            </g>
        </g>
        <g transform="matrix(1,0,0,1,-28,-95)">
            <g transform="matrix(1,0,0,1,204.394,320.329)">
                <g transform="matrix(29.1667,0,0,29.1667,59.1292,65.1449)">
                    <path d="M0.439,-0.56C0.426,-0.577 0.407,-0.592 0.383,-0.604C0.358,-0.615 0.334,-0.621 0.309,-0.621C0.294,-0.621 0.28,-0.619 0.265,-0.616C0.25,-0.612 0.237,-0.606 0.225,-0.599C0.213,-0.591 0.203,-0.581 0.196,-0.569C0.188,-0.556 0.184,-0.541 0.184,-0.524C0.184,-0.508 0.187,-0.494 0.194,-0.483C0.201,-0.472 0.21,-0.462 0.222,-0.454C0.233,-0.446 0.247,-0.439 0.264,-0.433C0.281,-0.427 0.299,-0.421 0.319,-0.415C0.342,-0.408 0.365,-0.399 0.39,-0.39C0.414,-0.381 0.436,-0.368 0.457,-0.353C0.477,-0.338 0.494,-0.318 0.507,-0.295C0.52,-0.272 0.526,-0.243 0.526,-0.208C0.526,-0.17 0.519,-0.137 0.505,-0.109C0.491,-0.08 0.472,-0.057 0.449,-0.038C0.426,-0.019 0.398,-0.005 0.367,0.004C0.336,0.013 0.303,0.018 0.268,0.018C0.222,0.018 0.177,0.01 0.133,-0.008C0.089,-0.025 0.053,-0.05 0.025,-0.083L0.115,-0.167C0.132,-0.143 0.156,-0.124 0.185,-0.11C0.214,-0.096 0.242,-0.089 0.27,-0.089C0.285,-0.089 0.3,-0.091 0.315,-0.095C0.33,-0.098 0.344,-0.104 0.357,-0.113C0.369,-0.122 0.379,-0.132 0.387,-0.146C0.394,-0.159 0.398,-0.175 0.398,-0.194C0.398,-0.213 0.394,-0.228 0.385,-0.241C0.376,-0.253 0.365,-0.264 0.35,-0.273C0.335,-0.282 0.318,-0.289 0.298,-0.296C0.278,-0.303 0.257,-0.31 0.235,-0.317C0.214,-0.324 0.192,-0.332 0.171,-0.341C0.15,-0.35 0.131,-0.363 0.114,-0.378C0.096,-0.393 0.083,-0.412 0.072,-0.435C0.061,-0.457 0.056,-0.485 0.056,-0.518C0.056,-0.554 0.064,-0.585 0.079,-0.611C0.094,-0.637 0.113,-0.659 0.138,-0.676C0.162,-0.693 0.19,-0.705 0.221,-0.714C0.252,-0.722 0.283,-0.726 0.315,-0.726C0.351,-0.726 0.388,-0.72 0.425,-0.707C0.462,-0.694 0.494,-0.675 0.521,-0.65L0.439,-0.56Z" style="fill:rgb(35,31,32);fill-rule:nonzero;"/>
                </g>
                <g transform="matrix(29.1667,0,0,29.1667,77.3292,65.1449)">
                    <path d="M0.51,-0L0.396,-0L0.396,-0.077L0.394,-0.077C0.383,-0.053 0.365,-0.032 0.339,-0.014C0.312,0.005 0.281,0.014 0.245,0.014C0.214,0.014 0.187,0.009 0.165,-0.003C0.142,-0.014 0.124,-0.028 0.11,-0.046C0.095,-0.064 0.085,-0.085 0.078,-0.108C0.071,-0.131 0.068,-0.155 0.068,-0.18L0.068,-0.48L0.188,-0.48L0.188,-0.214C0.188,-0.2 0.189,-0.185 0.191,-0.17C0.193,-0.155 0.197,-0.141 0.204,-0.129C0.211,-0.116 0.22,-0.106 0.232,-0.098C0.243,-0.09 0.259,-0.086 0.278,-0.086C0.297,-0.086 0.313,-0.09 0.328,-0.098C0.342,-0.105 0.354,-0.115 0.363,-0.127C0.372,-0.139 0.378,-0.153 0.383,-0.169C0.388,-0.184 0.39,-0.2 0.39,-0.216L0.39,-0.48L0.51,-0.48L0.51,-0Z" style="fill:rgb(35,31,32);fill-rule:nonzero;"/>
                </g>
                <g transform="matrix(29.1667,0,0,29.1667,95.7625,65.1449)">
                    <path d="M0.187,-0.48L0.187,-0.413L0.19,-0.413C0.196,-0.422 0.204,-0.432 0.214,-0.442C0.223,-0.451 0.235,-0.46 0.249,-0.468C0.263,-0.475 0.279,-0.482 0.297,-0.487C0.314,-0.492 0.334,-0.494 0.356,-0.494C0.39,-0.494 0.421,-0.488 0.45,-0.475C0.479,-0.462 0.503,-0.444 0.524,-0.421C0.545,-0.398 0.561,-0.372 0.572,-0.341C0.583,-0.31 0.589,-0.277 0.589,-0.242C0.589,-0.207 0.584,-0.173 0.573,-0.143C0.562,-0.112 0.546,-0.085 0.526,-0.062C0.505,-0.039 0.481,-0.02 0.452,-0.007C0.423,0.007 0.39,0.014 0.353,0.014C0.319,0.014 0.288,0.007 0.26,-0.007C0.231,-0.021 0.209,-0.04 0.194,-0.064L0.192,-0.064L0.192,0.24L0.072,0.24L0.072,-0.48L0.187,-0.48ZM0.467,-0.242C0.467,-0.261 0.464,-0.279 0.459,-0.298C0.453,-0.316 0.444,-0.332 0.433,-0.347C0.422,-0.362 0.407,-0.374 0.39,-0.383C0.373,-0.392 0.352,-0.396 0.329,-0.396C0.307,-0.396 0.287,-0.391 0.27,-0.382C0.253,-0.373 0.238,-0.361 0.226,-0.346C0.213,-0.331 0.204,-0.315 0.198,-0.296C0.191,-0.277 0.188,-0.259 0.188,-0.24C0.188,-0.221 0.191,-0.203 0.198,-0.185C0.204,-0.166 0.213,-0.15 0.226,-0.135C0.238,-0.12 0.253,-0.109 0.27,-0.1C0.287,-0.091 0.307,-0.086 0.329,-0.086C0.352,-0.086 0.373,-0.091 0.39,-0.1C0.407,-0.109 0.422,-0.121 0.433,-0.136C0.444,-0.151 0.453,-0.167 0.459,-0.186C0.464,-0.205 0.467,-0.223 0.467,-0.242Z" style="fill:rgb(35,31,32);fill-rule:nonzero;"/>
                </g>
                <g transform="matrix(29.1667,0,0,29.1667,115.683,65.1449)">
                    <path d="M0.41,-0.288C0.41,-0.303 0.408,-0.318 0.404,-0.332C0.399,-0.346 0.392,-0.358 0.383,-0.369C0.374,-0.38 0.362,-0.388 0.348,-0.395C0.333,-0.401 0.316,-0.404 0.297,-0.404C0.261,-0.404 0.231,-0.393 0.206,-0.372C0.181,-0.35 0.167,-0.322 0.164,-0.288L0.41,-0.288ZM0.53,-0.234L0.53,-0.218C0.53,-0.213 0.53,-0.207 0.529,-0.202L0.164,-0.202C0.165,-0.185 0.17,-0.169 0.178,-0.155C0.185,-0.14 0.195,-0.128 0.208,-0.118C0.221,-0.107 0.235,-0.099 0.251,-0.093C0.267,-0.087 0.284,-0.084 0.301,-0.084C0.331,-0.084 0.356,-0.09 0.377,-0.101C0.398,-0.112 0.415,-0.127 0.428,-0.146L0.508,-0.082C0.461,-0.018 0.392,0.014 0.302,0.014C0.265,0.014 0.23,0.008 0.199,-0.004C0.168,-0.015 0.14,-0.032 0.118,-0.053C0.095,-0.074 0.077,-0.1 0.064,-0.132C0.05,-0.163 0.044,-0.198 0.044,-0.237C0.044,-0.276 0.05,-0.311 0.064,-0.343C0.077,-0.374 0.094,-0.401 0.117,-0.424C0.14,-0.446 0.167,-0.463 0.198,-0.476C0.229,-0.488 0.262,-0.494 0.298,-0.494C0.331,-0.494 0.362,-0.489 0.391,-0.478C0.419,-0.467 0.443,-0.45 0.464,-0.429C0.485,-0.407 0.501,-0.38 0.513,-0.348C0.524,-0.315 0.53,-0.277 0.53,-0.234Z" style="fill:rgb(35,31,32);fill-rule:nonzero;"/>
                </g>
                <g transform="matrix(29.1667,0,0,29.1667,133.883,65.1449)">
                    <path d="M0.072,-0.48L0.187,-0.48L0.187,-0.4L0.189,-0.4C0.202,-0.428 0.221,-0.451 0.245,-0.468C0.269,-0.485 0.297,-0.494 0.329,-0.494C0.334,-0.494 0.339,-0.494 0.344,-0.494C0.349,-0.493 0.354,-0.492 0.358,-0.491L0.358,-0.381C0.35,-0.383 0.343,-0.384 0.338,-0.385C0.332,-0.386 0.326,-0.386 0.321,-0.386C0.294,-0.386 0.272,-0.381 0.255,-0.371C0.238,-0.361 0.225,-0.349 0.216,-0.335C0.207,-0.321 0.2,-0.307 0.197,-0.292C0.194,-0.277 0.192,-0.266 0.192,-0.257L0.192,-0L0.072,-0L0.072,-0.48Z" style="fill:rgb(35,31,32);fill-rule:nonzero;"/>
                </g>
                <g transform="matrix(29.1667,0,0,29.1667,145.958,65.1449)">
                    <path d="M0,-0.48L0.131,-0.48L0.257,-0.13L0.259,-0.13L0.386,-0.48L0.513,-0.48L0.322,-0L0.194,-0L0,-0.48Z" style="fill:rgb(35,31,32);fill-rule:nonzero;"/>
                </g>
                <g transform="matrix(29.1667,0,0,29.1667,162.379,65.1449)">
                    <path d="M0.074,-0.48L0.194,-0.48L0.194,-0L0.074,-0L0.074,-0.48ZM0.057,-0.643C0.057,-0.662 0.064,-0.679 0.079,-0.694C0.093,-0.708 0.111,-0.715 0.133,-0.715C0.155,-0.715 0.173,-0.708 0.189,-0.695C0.204,-0.681 0.211,-0.664 0.211,-0.643C0.211,-0.622 0.204,-0.605 0.189,-0.592C0.173,-0.578 0.155,-0.571 0.133,-0.571C0.111,-0.571 0.093,-0.578 0.079,-0.593C0.064,-0.607 0.057,-0.624 0.057,-0.643Z" style="fill:rgb(35,31,32);fill-rule:nonzero;"/>
                </g>
                <g transform="matrix(29.1667,0,0,29.1667,171.654,65.1449)">
                    <path d="M0.335,-0.352C0.324,-0.366 0.31,-0.378 0.291,-0.389C0.272,-0.399 0.252,-0.404 0.23,-0.404C0.211,-0.404 0.193,-0.4 0.177,-0.392C0.161,-0.384 0.153,-0.371 0.153,-0.352C0.153,-0.333 0.162,-0.32 0.18,-0.313C0.197,-0.305 0.223,-0.297 0.257,-0.289C0.275,-0.285 0.293,-0.28 0.312,-0.273C0.33,-0.266 0.347,-0.258 0.362,-0.247C0.377,-0.236 0.389,-0.222 0.398,-0.206C0.407,-0.189 0.412,-0.169 0.412,-0.146C0.412,-0.117 0.407,-0.092 0.396,-0.072C0.385,-0.051 0.37,-0.035 0.352,-0.022C0.333,-0.009 0.312,-0 0.288,0.006C0.263,0.011 0.238,0.014 0.212,0.014C0.175,0.014 0.138,0.007 0.103,-0.007C0.068,-0.02 0.038,-0.04 0.015,-0.065L0.094,-0.139C0.107,-0.122 0.125,-0.107 0.146,-0.096C0.167,-0.085 0.191,-0.079 0.217,-0.079C0.226,-0.079 0.235,-0.08 0.244,-0.082C0.253,-0.084 0.261,-0.087 0.269,-0.092C0.276,-0.096 0.282,-0.102 0.287,-0.109C0.292,-0.116 0.294,-0.125 0.294,-0.136C0.294,-0.156 0.285,-0.17 0.267,-0.179C0.248,-0.188 0.221,-0.196 0.184,-0.205C0.166,-0.209 0.149,-0.214 0.132,-0.221C0.115,-0.227 0.099,-0.235 0.086,-0.246C0.073,-0.256 0.062,-0.269 0.054,-0.284C0.046,-0.299 0.042,-0.318 0.042,-0.341C0.042,-0.368 0.048,-0.391 0.059,-0.41C0.069,-0.429 0.084,-0.445 0.102,-0.458C0.12,-0.47 0.14,-0.479 0.163,-0.485C0.186,-0.491 0.209,-0.494 0.233,-0.494C0.268,-0.494 0.302,-0.488 0.335,-0.476C0.368,-0.464 0.394,-0.446 0.413,-0.421L0.335,-0.352Z" style="fill:rgb(35,31,32);fill-rule:nonzero;"/>
                </g>
                <g transform="matrix(29.1667,0,0,29.1667,186.063,65.1449)">
                    <path d="M0.044,-0.242C0.044,-0.28 0.051,-0.315 0.065,-0.346C0.078,-0.377 0.097,-0.403 0.12,-0.425C0.143,-0.447 0.171,-0.464 0.203,-0.476C0.235,-0.488 0.269,-0.494 0.305,-0.494C0.341,-0.494 0.375,-0.488 0.407,-0.476C0.439,-0.464 0.467,-0.447 0.49,-0.425C0.513,-0.403 0.532,-0.377 0.546,-0.346C0.559,-0.315 0.566,-0.28 0.566,-0.242C0.566,-0.204 0.559,-0.169 0.546,-0.138C0.532,-0.107 0.513,-0.08 0.49,-0.058C0.467,-0.035 0.439,-0.018 0.407,-0.005C0.375,0.008 0.341,0.014 0.305,0.014C0.269,0.014 0.235,0.008 0.203,-0.005C0.171,-0.018 0.143,-0.035 0.12,-0.058C0.097,-0.08 0.078,-0.107 0.065,-0.138C0.051,-0.169 0.044,-0.204 0.044,-0.242ZM0.166,-0.242C0.166,-0.223 0.169,-0.205 0.175,-0.186C0.18,-0.167 0.189,-0.151 0.2,-0.136C0.211,-0.121 0.226,-0.109 0.243,-0.1C0.26,-0.091 0.281,-0.086 0.305,-0.086C0.329,-0.086 0.35,-0.091 0.367,-0.1C0.384,-0.109 0.399,-0.121 0.41,-0.136C0.421,-0.151 0.43,-0.167 0.436,-0.186C0.441,-0.205 0.444,-0.223 0.444,-0.242C0.444,-0.261 0.441,-0.279 0.436,-0.298C0.43,-0.316 0.421,-0.332 0.41,-0.347C0.399,-0.362 0.384,-0.374 0.367,-0.383C0.35,-0.392 0.329,-0.396 0.305,-0.396C0.281,-0.396 0.26,-0.392 0.243,-0.383C0.226,-0.374 0.211,-0.362 0.2,-0.347C0.189,-0.332 0.18,-0.316 0.175,-0.298C0.169,-0.279 0.166,-0.261 0.166,-0.242Z" style="fill:rgb(35,31,32);fill-rule:nonzero;"/>
                </g>
                <g transform="matrix(29.1667,0,0,29.1667,205.313,65.1449)">
                    <path d="M0.072,-0.48L0.187,-0.48L0.187,-0.4L0.189,-0.4C0.202,-0.428 0.221,-0.451 0.245,-0.468C0.269,-0.485 0.297,-0.494 0.329,-0.494C0.334,-0.494 0.339,-0.494 0.344,-0.494C0.349,-0.493 0.354,-0.492 0.358,-0.491L0.358,-0.381C0.35,-0.383 0.343,-0.384 0.338,-0.385C0.332,-0.386 0.326,-0.386 0.321,-0.386C0.294,-0.386 0.272,-0.381 0.255,-0.371C0.238,-0.361 0.225,-0.349 0.216,-0.335C0.207,-0.321 0.2,-0.307 0.197,-0.292C0.194,-0.277 0.192,-0.266 0.192,-0.257L0.192,-0L0.072,-0L0.072,-0.48Z" style="fill:rgb(35,31,32);fill-rule:nonzero;"/>
                </g>
            </g>
            <g transform="matrix(1,0,0,1,0,-0.426818)">
                <path d="M225.093,366.598L211.892,366.598L211.892,361.008L243.885,361.008L243.885,366.598L230.683,366.598L230.683,393.001L225.093,393.001L225.093,366.598Z" style="fill:none;stroke:rgb(35,31,32);stroke-width:2.5px;stroke-dasharray:2.5,5,0,0,0,0;"/>
            </g>
        </g>
        <g transform="matrix(1,0,0,1,566.276,316.128)">
            <g transform="matrix(29.1667,0,0,29.1667,63.4936,65.1449)">
                <path d="M0.078,-0.708L0.535,-0.708L0.535,-0.598L0.204,-0.598L0.204,-0.404L0.516,-0.404L0.516,-0.298L0.204,-0.298L0.204,-0L0.078,-0L0.078,-0.708Z" style="fill:rgb(35,31,32);fill-rule:nonzero;"/>
            </g>
            <g transform="matrix(29.1667,0,0,29.1667,81.1395,65.1449)">
                <path d="M0.074,-0.48L0.194,-0.48L0.194,-0L0.074,-0L0.074,-0.48ZM0.057,-0.643C0.057,-0.662 0.064,-0.679 0.079,-0.694C0.093,-0.708 0.111,-0.715 0.133,-0.715C0.155,-0.715 0.173,-0.708 0.189,-0.695C0.204,-0.681 0.211,-0.664 0.211,-0.643C0.211,-0.622 0.204,-0.605 0.189,-0.592C0.173,-0.578 0.155,-0.571 0.133,-0.571C0.111,-0.571 0.093,-0.578 0.079,-0.593C0.064,-0.607 0.057,-0.624 0.057,-0.643Z" style="fill:rgb(35,31,32);fill-rule:nonzero;"/>
            </g>
            <g transform="matrix(29.1667,0,0,29.1667,90.4145,65.1449)">
                <rect x="0.074" y="-0.756" width="0.12" height="0.756" style="fill:rgb(35,31,32);fill-rule:nonzero;"/>
            </g>
            <g transform="matrix(29.1667,0,0,29.1667,99.6895,65.1449)">
                <path d="M0.41,-0.288C0.41,-0.303 0.408,-0.318 0.404,-0.332C0.399,-0.346 0.392,-0.358 0.383,-0.369C0.374,-0.38 0.362,-0.388 0.348,-0.395C0.333,-0.401 0.316,-0.404 0.297,-0.404C0.261,-0.404 0.231,-0.393 0.206,-0.372C0.181,-0.35 0.167,-0.322 0.164,-0.288L0.41,-0.288ZM0.53,-0.234L0.53,-0.218C0.53,-0.213 0.53,-0.207 0.529,-0.202L0.164,-0.202C0.165,-0.185 0.17,-0.169 0.178,-0.155C0.185,-0.14 0.195,-0.128 0.208,-0.118C0.221,-0.107 0.235,-0.099 0.251,-0.093C0.267,-0.087 0.284,-0.084 0.301,-0.084C0.331,-0.084 0.356,-0.09 0.377,-0.101C0.398,-0.112 0.415,-0.127 0.428,-0.146L0.508,-0.082C0.461,-0.018 0.392,0.014 0.302,0.014C0.265,0.014 0.23,0.008 0.199,-0.004C0.168,-0.015 0.14,-0.032 0.118,-0.053C0.095,-0.074 0.077,-0.1 0.064,-0.132C0.05,-0.163 0.044,-0.198 0.044,-0.237C0.044,-0.276 0.05,-0.311 0.064,-0.343C0.077,-0.374 0.094,-0.401 0.117,-0.424C0.14,-0.446 0.167,-0.463 0.198,-0.476C0.229,-0.488 0.262,-0.494 0.298,-0.494C0.331,-0.494 0.362,-0.489 0.391,-0.478C0.419,-0.467 0.443,-0.45 0.464,-0.429C0.485,-0.407 0.501,-0.38 0.513,-0.348C0.524,-0.315 0.53,-0.277 0.53,-0.234Z" style="fill:rgb(35,31,32);fill-rule:nonzero;"/>
            </g>
            <g transform="matrix(29.1667,0,0,29.1667,126.639,65.1449)">
                <path d="M0.078,-0.708L0.329,-0.708C0.375,-0.708 0.421,-0.702 0.468,-0.69C0.515,-0.678 0.557,-0.658 0.594,-0.631C0.631,-0.603 0.662,-0.567 0.685,-0.522C0.708,-0.476 0.72,-0.421 0.72,-0.354C0.72,-0.292 0.708,-0.239 0.685,-0.194C0.662,-0.149 0.631,-0.113 0.594,-0.084C0.557,-0.055 0.515,-0.034 0.468,-0.021C0.421,-0.007 0.375,-0 0.329,-0L0.078,-0L0.078,-0.708ZM0.309,-0.11C0.342,-0.11 0.374,-0.114 0.407,-0.122C0.44,-0.129 0.469,-0.142 0.496,-0.161C0.522,-0.179 0.543,-0.204 0.56,-0.235C0.577,-0.266 0.585,-0.306 0.585,-0.354C0.585,-0.405 0.577,-0.446 0.56,-0.478C0.543,-0.51 0.522,-0.535 0.496,-0.553C0.469,-0.571 0.44,-0.583 0.407,-0.59C0.374,-0.597 0.342,-0.6 0.309,-0.6L0.204,-0.6L0.204,-0.11L0.309,-0.11Z" style="fill:rgb(35,31,32);fill-rule:nonzero;"/>
            </g>
            <g transform="matrix(29.1667,0,0,29.1667,150.381,65.1449)">
                <path d="M0.41,-0.288C0.41,-0.303 0.408,-0.318 0.404,-0.332C0.399,-0.346 0.392,-0.358 0.383,-0.369C0.374,-0.38 0.362,-0.388 0.348,-0.395C0.333,-0.401 0.316,-0.404 0.297,-0.404C0.261,-0.404 0.231,-0.393 0.206,-0.372C0.181,-0.35 0.167,-0.322 0.164,-0.288L0.41,-0.288ZM0.53,-0.234L0.53,-0.218C0.53,-0.213 0.53,-0.207 0.529,-0.202L0.164,-0.202C0.165,-0.185 0.17,-0.169 0.178,-0.155C0.185,-0.14 0.195,-0.128 0.208,-0.118C0.221,-0.107 0.235,-0.099 0.251,-0.093C0.267,-0.087 0.284,-0.084 0.301,-0.084C0.331,-0.084 0.356,-0.09 0.377,-0.101C0.398,-0.112 0.415,-0.127 0.428,-0.146L0.508,-0.082C0.461,-0.018 0.392,0.014 0.302,0.014C0.265,0.014 0.23,0.008 0.199,-0.004C0.168,-0.015 0.14,-0.032 0.118,-0.053C0.095,-0.074 0.077,-0.1 0.064,-0.132C0.05,-0.163 0.044,-0.198 0.044,-0.237C0.044,-0.276 0.05,-0.311 0.064,-0.343C0.077,-0.374 0.094,-0.401 0.117,-0.424C0.14,-0.446 0.167,-0.463 0.198,-0.476C0.229,-0.488 0.262,-0.494 0.298,-0.494C0.331,-0.494 0.362,-0.489 0.391,-0.478C0.419,-0.467 0.443,-0.45 0.464,-0.429C0.485,-0.407 0.501,-0.38 0.513,-0.348C0.524,-0.315 0.53,-0.277 0.53,-0.234Z" style="fill:rgb(35,31,32);fill-rule:nonzero;"/>
            </g>
            <g transform="matrix(29.1667,0,0,29.1667,168.581,65.1449)">
                <path d="M0.335,-0.352C0.324,-0.366 0.31,-0.378 0.291,-0.389C0.272,-0.399 0.252,-0.404 0.23,-0.404C0.211,-0.404 0.193,-0.4 0.177,-0.392C0.161,-0.384 0.153,-0.371 0.153,-0.352C0.153,-0.333 0.162,-0.32 0.18,-0.313C0.197,-0.305 0.223,-0.297 0.257,-0.289C0.275,-0.285 0.293,-0.28 0.312,-0.273C0.33,-0.266 0.347,-0.258 0.362,-0.247C0.377,-0.236 0.389,-0.222 0.398,-0.206C0.407,-0.189 0.412,-0.169 0.412,-0.146C0.412,-0.117 0.407,-0.092 0.396,-0.072C0.385,-0.051 0.37,-0.035 0.352,-0.022C0.333,-0.009 0.312,-0 0.288,0.006C0.263,0.011 0.238,0.014 0.212,0.014C0.175,0.014 0.138,0.007 0.103,-0.007C0.068,-0.02 0.038,-0.04 0.015,-0.065L0.094,-0.139C0.107,-0.122 0.125,-0.107 0.146,-0.096C0.167,-0.085 0.191,-0.079 0.217,-0.079C0.226,-0.079 0.235,-0.08 0.244,-0.082C0.253,-0.084 0.261,-0.087 0.269,-0.092C0.276,-0.096 0.282,-0.102 0.287,-0.109C0.292,-0.116 0.294,-0.125 0.294,-0.136C0.294,-0.156 0.285,-0.17 0.267,-0.179C0.248,-0.188 0.221,-0.196 0.184,-0.205C0.166,-0.209 0.149,-0.214 0.132,-0.221C0.115,-0.227 0.099,-0.235 0.086,-0.246C0.073,-0.256 0.062,-0.269 0.054,-0.284C0.046,-0.299 0.042,-0.318 0.042,-0.341C0.042,-0.368 0.048,-0.391 0.059,-0.41C0.069,-0.429 0.084,-0.445 0.102,-0.458C0.12,-0.47 0.14,-0.479 0.163,-0.485C0.186,-0.491 0.209,-0.494 0.233,-0.494C0.268,-0.494 0.302,-0.488 0.335,-0.476C0.368,-0.464 0.394,-0.446 0.413,-0.421L0.335,-0.352Z" style="fill:rgb(35,31,32);fill-rule:nonzero;"/>
            </g>
            <g transform="matrix(29.1667,0,0,29.1667,182.989,65.1449)">
                <path d="M0.4,-0.347C0.391,-0.36 0.377,-0.372 0.358,-0.381C0.339,-0.39 0.32,-0.394 0.301,-0.394C0.279,-0.394 0.26,-0.39 0.243,-0.381C0.226,-0.372 0.213,-0.36 0.202,-0.345C0.191,-0.33 0.182,-0.314 0.177,-0.296C0.172,-0.277 0.169,-0.259 0.169,-0.24C0.169,-0.221 0.172,-0.203 0.178,-0.185C0.183,-0.166 0.192,-0.15 0.203,-0.135C0.214,-0.12 0.229,-0.109 0.246,-0.1C0.263,-0.091 0.282,-0.086 0.305,-0.086C0.324,-0.086 0.342,-0.09 0.361,-0.097C0.38,-0.104 0.395,-0.115 0.406,-0.129L0.481,-0.053C0.461,-0.032 0.436,-0.015 0.405,-0.004C0.374,0.008 0.34,0.014 0.304,0.014C0.269,0.014 0.235,0.008 0.204,-0.003C0.172,-0.014 0.144,-0.031 0.121,-0.053C0.097,-0.075 0.078,-0.102 0.065,-0.133C0.051,-0.164 0.044,-0.2 0.044,-0.24C0.044,-0.279 0.051,-0.314 0.065,-0.345C0.078,-0.376 0.097,-0.403 0.12,-0.425C0.143,-0.447 0.171,-0.464 0.202,-0.476C0.233,-0.488 0.266,-0.494 0.301,-0.494C0.336,-0.494 0.371,-0.487 0.404,-0.474C0.437,-0.461 0.463,-0.442 0.482,-0.419L0.4,-0.347Z" style="fill:rgb(35,31,32);fill-rule:nonzero;"/>
            </g>
            <g transform="matrix(29.1667,0,0,29.1667,198.681,65.1449)">
                <path d="M0.072,-0.48L0.187,-0.48L0.187,-0.4L0.189,-0.4C0.202,-0.428 0.221,-0.451 0.245,-0.468C0.269,-0.485 0.297,-0.494 0.329,-0.494C0.334,-0.494 0.339,-0.494 0.344,-0.494C0.349,-0.493 0.354,-0.492 0.358,-0.491L0.358,-0.381C0.35,-0.383 0.343,-0.384 0.338,-0.385C0.332,-0.386 0.326,-0.386 0.321,-0.386C0.294,-0.386 0.272,-0.381 0.255,-0.371C0.238,-0.361 0.225,-0.349 0.216,-0.335C0.207,-0.321 0.2,-0.307 0.197,-0.292C0.194,-0.277 0.192,-0.266 0.192,-0.257L0.192,-0L0.072,-0L0.072,-0.48Z" style="fill:rgb(35,31,32);fill-rule:nonzero;"/>
            </g>
            <g transform="matrix(29.1667,0,0,29.1667,210.756,65.1449)">
                <path d="M0.074,-0.48L0.194,-0.48L0.194,-0L0.074,-0L0.074,-0.48ZM0.057,-0.643C0.057,-0.662 0.064,-0.679 0.079,-0.694C0.093,-0.708 0.111,-0.715 0.133,-0.715C0.155,-0.715 0.173,-0.708 0.189,-0.695C0.204,-0.681 0.211,-0.664 0.211,-0.643C0.211,-0.622 0.204,-0.605 0.189,-0.592C0.173,-0.578 0.155,-0.571 0.133,-0.571C0.111,-0.571 0.093,-0.578 0.079,-0.593C0.064,-0.607 0.057,-0.624 0.057,-0.643Z" style="fill:rgb(35,31,32);fill-rule:nonzero;"/>
            </g>
            <g transform="matrix(29.1667,0,0,29.1667,220.031,65.1449)">
                <path d="M0.187,-0.48L0.187,-0.413L0.19,-0.413C0.196,-0.422 0.204,-0.432 0.214,-0.442C0.223,-0.451 0.235,-0.46 0.249,-0.468C0.263,-0.475 0.279,-0.482 0.297,-0.487C0.314,-0.492 0.334,-0.494 0.356,-0.494C0.39,-0.494 0.421,-0.488 0.45,-0.475C0.479,-0.462 0.503,-0.444 0.524,-0.421C0.545,-0.398 0.561,-0.372 0.572,-0.341C0.583,-0.31 0.589,-0.277 0.589,-0.242C0.589,-0.207 0.584,-0.173 0.573,-0.143C0.562,-0.112 0.546,-0.085 0.526,-0.062C0.505,-0.039 0.481,-0.02 0.452,-0.007C0.423,0.007 0.39,0.014 0.353,0.014C0.319,0.014 0.288,0.007 0.26,-0.007C0.231,-0.021 0.209,-0.04 0.194,-0.064L0.192,-0.064L0.192,0.24L0.072,0.24L0.072,-0.48L0.187,-0.48ZM0.467,-0.242C0.467,-0.261 0.464,-0.279 0.459,-0.298C0.453,-0.316 0.444,-0.332 0.433,-0.347C0.422,-0.362 0.407,-0.374 0.39,-0.383C0.373,-0.392 0.352,-0.396 0.329,-0.396C0.307,-0.396 0.287,-0.391 0.27,-0.382C0.253,-0.373 0.238,-0.361 0.226,-0.346C0.213,-0.331 0.204,-0.315 0.198,-0.296C0.191,-0.277 0.188,-0.259 0.188,-0.24C0.188,-0.221 0.191,-0.203 0.198,-0.185C0.204,-0.166 0.213,-0.15 0.226,-0.135C0.238,-0.12 0.253,-0.109 0.27,-0.1C0.287,-0.091 0.307,-0.086 0.329,-0.086C0.352,-0.086 0.373,-0.091 0.39,-0.1C0.407,-0.109 0.422,-0.121 0.433,-0.136C0.444,-0.151 0.453,-0.167 0.459,-0.186C0.464,-0.205 0.467,-0.223 0.467,-0.242Z" style="fill:rgb(35,31,32);fill-rule:nonzero;"/>
            </g>
            <g transform="matrix(29.1667,0,0,29.1667,239.952,65.1449)">
                <path d="M0.003,-0.384L0.003,-0.48L0.087,-0.48L0.087,-0.619L0.205,-0.619L0.205,-0.48L0.325,-0.48L0.325,-0.384L0.205,-0.384L0.205,-0.161C0.205,-0.14 0.209,-0.122 0.217,-0.108C0.224,-0.094 0.241,-0.087 0.268,-0.087C0.276,-0.087 0.285,-0.088 0.294,-0.09C0.303,-0.091 0.312,-0.094 0.319,-0.097L0.323,-0.003C0.312,0.001 0.3,0.004 0.285,0.007C0.27,0.009 0.256,0.01 0.243,0.01C0.211,0.01 0.185,0.006 0.165,-0.004C0.145,-0.013 0.129,-0.025 0.118,-0.041C0.106,-0.056 0.098,-0.074 0.094,-0.095C0.089,-0.115 0.087,-0.137 0.087,-0.16L0.087,-0.384L0.003,-0.384Z" style="fill:rgb(35,31,32);fill-rule:nonzero;"/>
            </g>
            <g transform="matrix(29.1667,0,0,29.1667,251.327,65.1449)">
                <path d="M0.41,-0.288C0.41,-0.303 0.408,-0.318 0.404,-0.332C0.399,-0.346 0.392,-0.358 0.383,-0.369C0.374,-0.38 0.362,-0.388 0.348,-0.395C0.333,-0.401 0.316,-0.404 0.297,-0.404C0.261,-0.404 0.231,-0.393 0.206,-0.372C0.181,-0.35 0.167,-0.322 0.164,-0.288L0.41,-0.288ZM0.53,-0.234L0.53,-0.218C0.53,-0.213 0.53,-0.207 0.529,-0.202L0.164,-0.202C0.165,-0.185 0.17,-0.169 0.178,-0.155C0.185,-0.14 0.195,-0.128 0.208,-0.118C0.221,-0.107 0.235,-0.099 0.251,-0.093C0.267,-0.087 0.284,-0.084 0.301,-0.084C0.331,-0.084 0.356,-0.09 0.377,-0.101C0.398,-0.112 0.415,-0.127 0.428,-0.146L0.508,-0.082C0.461,-0.018 0.392,0.014 0.302,0.014C0.265,0.014 0.23,0.008 0.199,-0.004C0.168,-0.015 0.14,-0.032 0.118,-0.053C0.095,-0.074 0.077,-0.1 0.064,-0.132C0.05,-0.163 0.044,-0.198 0.044,-0.237C0.044,-0.276 0.05,-0.311 0.064,-0.343C0.077,-0.374 0.094,-0.401 0.117,-0.424C0.14,-0.446 0.167,-0.463 0.198,-0.476C0.229,-0.488 0.262,-0.494 0.298,-0.494C0.331,-0.494 0.362,-0.489 0.391,-0.478C0.419,-0.467 0.443,-0.45 0.464,-0.429C0.485,-0.407 0.501,-0.38 0.513,-0.348C0.524,-0.315 0.53,-0.277 0.53,-0.234Z" style="fill:rgb(35,31,32);fill-rule:nonzero;"/>
            </g>
            <g transform="matrix(29.1667,0,0,29.1667,269.527,65.1449)">
                <path d="M0.072,-0.48L0.187,-0.48L0.187,-0.4L0.189,-0.4C0.202,-0.428 0.221,-0.451 0.245,-0.468C0.269,-0.485 0.297,-0.494 0.329,-0.494C0.334,-0.494 0.339,-0.494 0.344,-0.494C0.349,-0.493 0.354,-0.492 0.358,-0.491L0.358,-0.381C0.35,-0.383 0.343,-0.384 0.338,-0.385C0.332,-0.386 0.326,-0.386 0.321,-0.386C0.294,-0.386 0.272,-0.381 0.255,-0.371C0.238,-0.361 0.225,-0.349 0.216,-0.335C0.207,-0.321 0.2,-0.307 0.197,-0.292C0.194,-0.277 0.192,-0.266 0.192,-0.257L0.192,-0L0.072,-0L0.072,-0.48Z" style="fill:rgb(35,31,32);fill-rule:nonzero;"/>
            </g>
        </g>
        <g transform="matrix(0.38754,0,0,0.136474,546.818,303.285)">
            <path d="M843.689,365.313L843.689,655.541C843.689,674.987 838.129,690.774 831.281,690.774L155.852,690.774C149.004,690.774 143.444,674.987 143.444,655.541L143.444,365.313C143.444,345.867 149.004,330.079 155.852,330.079L831.281,330.079C838.129,330.079 843.689,345.867 843.689,365.313Z" style="fill:none;stroke:rgb(35,31,32);stroke-width:9.32px;"/>
        </g>
        <g transform="matrix(0.133514,0.0682525,-0.142798,0.957481,529.429,38.9837)">
            <path d="M417.667,283.093L846.001,288.809" style="fill:none;stroke:rgb(35,31,32);stroke-width:3.16px;"/>
        </g>
        <g transform="matrix(0.129627,-0.0939413,0.146603,0.955136,449.125,176.819)">
            <path d="M417.667,283.093L846.001,288.809" style="fill:none;stroke:rgb(35,31,32);stroke-width:3.58px;"/>
        </g>
    </g>
</svg>
