<?xml version="1.0" encoding="UTF-8" standalone="no"?>
<!DOCTYPE svg PUBLIC "-//W3C//DTD SVG 1.1//EN" "http://www.w3.org/Graphics/SVG/1.1/DTD/svg11.dtd">
<svg width="100%" height="100%" viewBox="0 0 898 473" version="1.1" xmlns="http://www.w3.org/2000/svg" xmlns:xlink="http://www.w3.org/1999/xlink" xml:space="preserve" xmlns:serif="http://www.serif.com/" style="fill-rule:evenodd;clip-rule:evenodd;stroke-linecap:round;stroke-linejoin:round;stroke-miterlimit:1.5;">
    <g transform="matrix(0.828999,0,0,0.543607,1.54691,0.105834)">
        <rect x="-1.866" y="-0.129" width="1082.8" height="869.085" style="fill:white;"/>
    </g>
    <g id="Supervisor" transform="matrix(1,0,0,1,-9.77537,-67.9186)">
        <g transform="matrix(1,0,0,1,-162,0)">
            <g transform="matrix(1,0,0,-0.915828,-71.0029,409.503)">
                <path d="M296.346,284.252L313.025,317.609L279.668,317.609L296.346,284.252Z" style="stroke:rgb(35,31,32);stroke-width:2.61px;"/>
            </g>
            <g transform="matrix(1,0,0,1,204.394,79.0271)">
                <g transform="matrix(29.1667,0,0,29.1667,183.642,65.1449)">
                </g>
                <text x="59.129px" y="65.145px" style="font-family:'AvenirNext-DemiBold', 'Avenir Next', sans-serif;font-weight:600;font-size:29.167px;fill:rgb(35,31,32);">S<tspan x="77.329px 93.75px 108.158px 119.533px 137.733px 165.15px " y="65.145px 65.145px 65.145px 65.145px 65.145px 65.145px ">ystemd</tspan></text>
            </g>
        </g>
        <g transform="matrix(1,0,0,1,-95,16)">
            <g transform="matrix(1,0,0,-0.915828,-71.0029,469.6)">
                <path d="M296.346,284.252L313.025,317.609L279.668,317.609L296.346,284.252Z" style="stroke:rgb(35,31,32);stroke-width:2.61px;"/>
            </g>
            <g transform="matrix(1,0,0,1,204.394,139.124)">
                <g transform="matrix(29.1667,0,0,29.1667,140.942,65.1449)">
                </g>
                <text x="59.129px" y="65.145px" style="font-family:'AvenirNext-DemiBold', 'Avenir Next', sans-serif;font-weight:600;font-size:29.167px;fill:rgb(35,31,32);">D<tspan x="82.871px 101.071px 125.979px " y="65.145px 65.145px 65.145px ">ewy</tspan></text>
            </g>
        </g>
        <g id="L" transform="matrix(1,0,0,1,-163,7)">
            <path d="M226.485,162.823L226.445,203.926" style="fill:none;stroke:rgb(35,31,32);stroke-width:2.29px;"/>
            <g transform="matrix(9.28912e-05,1,-1,9.28912e-05,430.351,-22.5737)">
                <path d="M226.485,162.823L226.445,203.926" style="fill:none;stroke:rgb(35,31,32);stroke-width:2.29px;"/>
            </g>
        </g>
        <g id="L1" serif:id="L" transform="matrix(1,0,0,1,-96,76)">
            <path d="M226.485,162.823L226.445,203.926" style="fill:none;stroke:rgb(35,31,32);stroke-width:2.29px;"/>
            <g transform="matrix(9.28912e-05,1,-1,9.28912e-05,430.351,-22.5737)">
                <path d="M226.485,162.823L226.445,203.926" style="fill:none;stroke:rgb(35,31,32);stroke-width:2.29px;"/>
            </g>
        </g>
        <g transform="matrix(1,0,0,1,-24,85)">
            <g transform="matrix(1,0,0,1,204.394,199.558)">
                <g transform="matrix(29.1667,0,0,29.1667,357.242,65.1449)">
                </g>
                <text x="59.129px" y="65.145px" style="font-family:'AvenirNext-DemiBold', 'Avenir Next', sans-serif;font-weight:600;font-size:29.167px;fill:rgb(35,31,32);">C<tspan x="80.888px 99.321px 111.396px 122.946px 141.146px 159.579px 170.954px 179.179px 201.229px 221.15px 241.071px 249.821px 269.071px 281.146px 289.896px 307.542px 316.817px 326.092px 344.292px " y="65.145px 65.145px 65.145px 65.145px 65.145px 65.145px 65.145px 65.145px 65.145px 65.145px 65.145px 65.145px 65.145px 65.145px 65.145px 65.145px 65.145px 65.145px 65.145px ">urrent App or Files</tspan></text>
            </g>
            <g transform="matrix(1,0,0,1,-8.53516,-72.0506)">
                <circle cx="233.878" cy="326.484" r="17.118" style="fill:none;stroke:black;stroke-width:2.5px;stroke-dasharray:2.5,5,0,0,0,0;"/>
            </g>
        </g>
        <g transform="matrix(1,0,0,1,-24,85)">
            <g transform="matrix(1,0,0,1,204.394,260.329)">
                <text x="59.129px" y="65.962px" style="font-family:'AvenirNext-DemiBold', 'Avenir Next', sans-serif;font-weight:600;font-size:29.167px;fill:rgb(35,31,32);">N<tspan x="83.338px 101.538px 126.446px 134.671px 156.721px 176.642px " y="65.962px 65.962px 65.962px 65.962px 65.962px 65.962px ">ew App</tspan></text>
                <g transform="matrix(29.1667,0,0,29.1667,315.154,65.9615)">
                </g>
                <text x="207.733px" y="65.962px" style="font-family:'AvenirNext-DemiBold', 'Avenir Next', sans-serif;font-weight:600;font-size:29.167px;fill:rgb(35,31,32);">o<tspan x="226.983px 239.058px 247.808px 265.454px 274.729px 284.004px 302.204px " y="65.962px 65.962px 65.962px 65.962px 65.962px 65.962px 65.962px ">r Files</tspan></text>
            </g>
            <g transform="matrix(1,0,0,1,-8.53516,-12.2795)">
                <circle cx="233.878" cy="326.484" r="17.118" style="fill:rgb(35,31,32);stroke:rgb(35,31,32);stroke-width:2.5px;"/>
            </g>
        </g>
        <g transform="matrix(1,0,0,1,-28,-95)">
            <g transform="matrix(1,0,0,1,204.394,320.329)">
                <g transform="matrix(29.1667,0,0,29.1667,215.929,65.1449)">
                </g>
                <text x="59.129px" y="65.145px" style="font-family:'AvenirNext-DemiBold', 'Avenir Next', sans-serif;font-weight:600;font-size:29.167px;fill:rgb(35,31,32);">S<tspan x="77.329px 95.763px 115.683px 133.883px 145.958px 162.379px 171.654px 186.063px 205.313px " y="65.145px 65.145px 65.145px 65.145px 65.145px 65.145px 65.145px 65.145px 65.145px ">upervisor</tspan></text>
            </g>
            <g transform="matrix(1,0,0,1,0,-0.426818)">
                <path d="M225.093,366.598L211.892,366.598L211.892,361.008L243.885,361.008L243.885,366.598L230.683,366.598L230.683,393.001L225.093,393.001L225.093,366.598Z" style="fill:none;stroke:rgb(35,31,32);stroke-width:2.5px;stroke-dasharray:2.5,5,0,0,0,0;"/>
            </g>
        </g>
        <g transform="matrix(2.51158,-0.0243732,-0.0387986,0.880133,-1165.67,-259.458)">
            <g transform="matrix(0.398326,0.0110307,0.0175593,1.13668,473.96,385.088)">
                <path d="M583.159,210.004L589.303,213.99L583.26,218.128" style="fill:none;stroke:rgb(35,31,32);stroke-width:2.71px;stroke-linejoin:miter;stroke-miterlimit:10;"/>
                <path d="M416.707,216.138C416.707,216.138 568.153,214.254 589.303,213.99" style="fill:none;stroke:rgb(35,31,32);stroke-width:2.71px;"/>
            </g>
        </g>
        <g transform="matrix(0.552594,0,0,0.87965,300.901,-274.747)">
            <path d="M713.424,634.819L713.653,768.942L560.881,770.061" style="fill:none;stroke:rgb(35,31,32);stroke-width:3.69px;"/>
        </g>
        <g transform="matrix(0.552594,0,0,0.469773,300.901,-16.5489)">
            <path d="M713.424,634.819L713.653,768.942L560.881,770.061" style="fill:none;stroke:rgb(35,31,32);stroke-width:5.28px;stroke-dasharray:5.28,10.56,0,0,0,0;"/>
        </g>
        <g transform="matrix(1,0,0,1,0,-91)">
            <g transform="matrix(0.967724,0,0,1,28.2024,0)">
                <g transform="matrix(0.38754,0,0,0.136474,546.818,303.285)">
                    <path d="M843.689,365.313L843.689,655.541C843.689,674.987 837.944,690.774 830.867,690.774L156.266,690.774C149.189,690.774 143.444,674.987 143.444,655.541L143.444,365.313C143.444,345.867 149.189,330.079 156.266,330.079L830.867,330.079C837.944,330.079 843.689,345.867 843.689,365.313Z" style="fill:white;stroke:rgb(35,31,32);stroke-width:9.6px;"/>
                </g>
                <g transform="matrix(1.03335,0,0,1,564.304,316.128)">
                    <g transform="matrix(29.1667,0,0,29.1667,277.031,65.1449)">
                    </g>
                    <text x="59.331px" y="65.145px" style="font-family:'AvenirNext-DemiBold', 'Avenir Next', sans-serif;font-weight:600;font-size:29.167px;fill:rgb(35,31,32);">F<tspan x="76.977px 86.252px 95.527px 113.727px 122.477px 146.219px 164.419px 178.827px 194.519px 206.594px 215.869px 235.79px 247.165px 266.415px " y="65.145px 65.145px 65.145px 65.145px 65.145px 65.145px 65.145px 65.145px 65.145px 65.145px 65.145px 65.145px 65.145px 65.145px ">ile Descriptor</tspan></text>
                </g>
            </g>
            <g transform="matrix(1,0,0,1,666.432,285.85)">
                <text x="66.74px" y="52.895px" style="font-family:'AvenirNext-DemiBold', 'Avenir Next', sans-serif;font-weight:600;font-size:12.5px;fill:rgb(35,31,32);">S<tspan x="74.54px 82.34px 87.515px 94.553px 102.353px 107.528px 111.278px 118.003px 126.253px 138.003px 149.753px 157.253px 165.153px " y="52.895px 52.895px 52.895px 52.895px 52.895px 52.895px 52.895px 52.895px 52.895px 52.895px 52.895px 52.895px 52.895px ">erver command</tspan></text>
                <g transform="matrix(12.5,0,0,12.5,205.028,52.8949)">
                </g>
                <text x="178.49px" y="52.895px" style="font-family:'AvenirNext-DemiBold', 'Avenir Next', sans-serif;font-weight:600;font-size:12.5px;fill:rgb(35,31,32);">o<tspan x="186.74px 194.64px 198.615px " y="52.895px 52.895px 52.895px ">nly</tspan></text>
            </g>
        </g>
        <g transform="matrix(1,0,0,1,-144.962,125.596)">
            <g transform="matrix(0.657891,0,0,0.617035,118.246,128.782)">
                <path d="M351.263,131.214L351.263,144.541C351.263,148.219 348.463,151.204 345.013,151.204L280.627,151.204C277.178,151.204 274.377,148.219 274.377,144.541L274.377,131.214C274.377,127.536 277.178,124.551 280.627,124.551L345.013,124.551C348.463,124.551 351.263,127.536 351.263,131.214Z"/>
            </g>
            <g transform="matrix(1,0,0,1,230.485,160.71)">
                <g transform="matrix(8.33333,0,0,8.33333,112.763,56.2965)">
                </g>
                <text x="74.363px" y="56.296px" style="font-family:'AvenirNext-DemiBold', 'Avenir Next', sans-serif;font-weight:600;font-size:8.333px;fill:white;">S<tspan x="79.563px 82.33px 88.788px 93.938px 99.438px 105.096px " y="56.296px 56.296px 56.296px 56.296px 56.296px 56.296px ">IGTERM</tspan></text>
            </g>
        </g>
    </g>
</svg>
